<svg width="19" height="20" viewBox="0 0 19 20" fill="none" xmlns="http://www.w3.org/2000/svg">
<g clip-path="url(#clip0_725_109)">
<path d="M8.79937 1.12344C8.57969 1.4025 3.41406 8.0525 3.41406 13.1172C3.41406 16.4719 6.14531 19.2031 9.5 19.2031C12.8547 19.2031 15.5859 16.4719 15.5859 13.1172C15.5859 8.0525 10.4203 1.4025 10.2006 1.12344C9.86219 0.690003 9.13781 0.690003 8.79937 1.12344ZM11.4237 13.1172C11.4237 12.6244 11.8275 12.2266 12.3203 12.2266C12.8131 12.2266 13.2109 12.6244 13.2109 13.1172C13.2109 15.1597 11.5425 16.8281 9.5 16.8281C9.263 16.8281 9.03572 16.734 8.86813 16.5664C8.70055 16.3988 8.60641 16.1715 8.60641 15.9345C8.60641 15.6975 8.70055 15.4703 8.86813 15.3027C9.03572 15.1351 9.263 15.0409 9.5 15.0409C9.75263 15.0409 10.0028 14.9912 10.2362 14.8945C10.4696 14.7978 10.6817 14.6561 10.8603 14.4775C11.0389 14.2989 11.1806 14.0868 11.2773 13.8534C11.374 13.62 11.4237 13.3698 11.4237 13.1172Z" fill="#ED2891"/>
</g>
<defs>
<clipPath id="clip0_725_109">
<rect width="19" height="19" fill="white" transform="translate(0 0.5)"/>
</clipPath>
</defs>
</svg>
