<svg width="19" height="20" viewBox="0 0 19 20" fill="none" xmlns="http://www.w3.org/2000/svg">
<g clip-path="url(#clip0_725_120)">
<path d="M16.2175 3.2825C14.4232 1.48819 12.0375 0.5 9.5 0.5C6.96246 0.5 4.57681 1.48819 2.78246 3.2825C0.988186 5.07681 0 7.46246 0 10C0 11.3328 0.27075 12.6221 0.804717 13.8321L1.82322 13.3826C1.35215 12.3151 1.11328 11.1771 1.11328 10C1.11328 7.75982 1.98565 5.65375 3.5697 4.0697C5.15375 2.48565 7.25982 1.61328 9.5 1.61328C11.7402 1.61328 13.8462 2.48565 15.4303 4.0697C17.0144 5.65375 17.8867 7.75982 17.8867 10C17.8867 12.2402 17.0144 14.3462 15.4303 15.9303C13.8462 17.5144 11.7402 18.3867 9.5 18.3867C7.34164 18.3867 5.30872 17.5722 3.76348 16.1191H5.62456C6.74604 16.8318 8.07559 17.2453 9.5 17.2453C13.495 17.2453 16.7453 13.995 16.7453 10C16.7453 6.00495 13.495 2.75473 9.5 2.75473C5.50492 2.75473 2.25469 6.00495 2.25469 10C2.25469 11.9399 3.02111 13.704 4.26687 15.0058H1.93804V18.222H3.05132V16.9768C4.79535 18.5941 7.0778 19.5 9.5 19.5C12.0375 19.5 14.4232 18.5118 16.2175 16.7175C18.0118 14.9232 19 12.5375 19 10C19 7.46246 18.0118 5.07681 16.2175 3.2825ZM5.12113 7.10473H7.82173L9.17192 4.76609H12.5151L14.1866 7.66137L12.8365 10L14.1867 12.3386L12.5151 15.2339H9.17195L7.82177 12.8953H5.12117L3.44954 10L5.12113 7.10473Z" fill="#ED2891"/>
<path d="M9.81475 9.44336H11.8724L12.9012 7.66136L11.8724 5.87941H9.81475L8.78593 7.66136L9.81475 9.44336ZM11.8724 10.5566H9.81475L8.78593 12.3386L9.81475 14.1206H11.8724L12.9012 12.3386L11.8724 10.5566ZM5.76393 11.782H7.82161L8.85043 10L7.82161 8.21801H5.76393L4.73511 10L5.76393 11.782Z" fill="#ED2891"/>
</g>
<defs>
<clipPath id="clip0_725_120">
<rect width="19" height="19" fill="white" transform="translate(0 0.5)"/>
</clipPath>
</defs>
</svg>
