<svg width="19" height="20" viewBox="0 0 19 20" fill="none" xmlns="http://www.w3.org/2000/svg">
<path d="M18.332 4.35938H18.1094C17.4324 4.35519 16.7808 4.61739 16.2955 5.08939C16.1598 5.23381 15.9961 5.34892 15.8143 5.4276C15.6324 5.50628 15.4364 5.54687 15.2383 5.54687C15.0402 5.54687 14.8442 5.50628 14.6623 5.4276C14.4805 5.34892 14.3167 5.23381 14.1811 5.08939C13.6935 4.62098 13.0436 4.35939 12.3675 4.35939C11.6914 4.35939 11.0415 4.62098 10.5539 5.08939C10.4185 5.2338 10.2549 5.3489 10.0732 5.42758C9.8916 5.50626 9.69574 5.54686 9.49777 5.54686C9.29981 5.54686 9.10395 5.50626 8.9223 5.42758C8.74064 5.3489 8.57705 5.2338 8.44164 5.08939C7.95411 4.621 7.30425 4.35941 6.62818 4.35941C5.9521 4.35941 5.30225 4.621 4.81472 5.08939C4.67938 5.23377 4.51587 5.34886 4.33429 5.42753C4.15271 5.5062 3.95692 5.5468 3.75903 5.5468C3.56114 5.5468 3.36535 5.5062 3.18377 5.42753C3.00219 5.34886 2.83868 5.23377 2.70334 5.08939C2.21842 4.61744 1.56729 4.35521 0.890625 4.35938H0.667969C0.510496 4.35938 0.359474 4.42193 0.248124 4.53328C0.136774 4.64463 0.0742188 4.79566 0.0742188 4.95313C0.0742188 5.1106 0.136774 5.26162 0.248124 5.37297C0.359474 5.48432 0.510496 5.54688 0.667969 5.54688H0.890625C1.08863 5.5462 1.28463 5.58649 1.46631 5.66522C1.64799 5.74395 1.81142 5.85942 1.94631 6.00436C2.43361 6.47275 3.08328 6.73435 3.75918 6.73435C4.43508 6.73435 5.08475 6.47275 5.57205 6.00436C5.70749 5.85995 5.8711 5.74485 6.05278 5.66616C6.23446 5.58747 6.43034 5.54688 6.62833 5.54688C6.82631 5.54688 7.0222 5.58747 7.20388 5.66616C7.38555 5.74485 7.54917 5.85995 7.68461 6.00436C8.17206 6.4728 8.82187 6.73443 9.49792 6.73443C10.174 6.73443 10.8238 6.4728 11.3112 6.00436C11.4467 5.85994 11.6103 5.74483 11.792 5.66614C11.9737 5.58745 12.1697 5.54686 12.3677 5.54686C12.5657 5.54686 12.7616 5.58745 12.9433 5.66614C13.125 5.74483 13.2886 5.85994 13.4241 6.00436C13.9119 6.47276 14.5619 6.73434 15.2381 6.73434C15.9144 6.73434 16.5644 6.47276 17.0522 6.00436C17.1874 5.85935 17.351 5.74385 17.533 5.66512C17.7149 5.58639 17.9111 5.54614 18.1094 5.54688H18.332C18.4895 5.54688 18.6405 5.48432 18.7519 5.37297C18.8632 5.26162 18.9258 5.1106 18.9258 4.95313C18.9258 4.79566 18.8632 4.64463 18.7519 4.53328C18.6405 4.42193 18.4895 4.35938 18.332 4.35938ZM18.332 7.32813H18.1094C17.4324 7.32394 16.7808 7.58614 16.2955 8.05814C16.1598 8.20256 15.9961 8.31767 15.8143 8.39635C15.6324 8.47503 15.4364 8.51562 15.2383 8.51562C15.0402 8.51562 14.8442 8.47503 14.6623 8.39635C14.4805 8.31767 14.3167 8.20256 14.1811 8.05814C13.6935 7.58973 13.0436 7.32814 12.3675 7.32814C11.6914 7.32814 11.0415 7.58973 10.5539 8.05814C10.4185 8.20255 10.2549 8.31765 10.0732 8.39633C9.8916 8.47501 9.69574 8.51561 9.49777 8.51561C9.29981 8.51561 9.10395 8.47501 8.9223 8.39633C8.74064 8.31765 8.57705 8.20255 8.44164 8.05814C7.95411 7.58975 7.30425 7.32817 6.62818 7.32817C5.9521 7.32817 5.30225 7.58975 4.81472 8.05814C4.67938 8.20252 4.51587 8.31761 4.33429 8.39628C4.15271 8.47495 3.95692 8.51555 3.75903 8.51555C3.56114 8.51555 3.36535 8.47495 3.18377 8.39628C3.00219 8.31761 2.83868 8.20252 2.70334 8.05814C2.21842 7.58619 1.56729 7.32396 0.890625 7.32813H0.667969C0.510496 7.32813 0.359474 7.39068 0.248124 7.50203C0.136774 7.61338 0.0742188 7.76441 0.0742188 7.92188C0.0742188 8.07935 0.136774 8.23037 0.248124 8.34172C0.359474 8.45307 0.510496 8.51563 0.667969 8.51563H0.890625C1.08863 8.51495 1.28463 8.55524 1.46631 8.63397C1.64799 8.7127 1.81142 8.82817 1.94631 8.97311C2.43361 9.4415 3.08328 9.7031 3.75918 9.7031C4.43508 9.7031 5.08475 9.4415 5.57205 8.97311C5.70749 8.8287 5.8711 8.7136 6.05278 8.63491C6.23446 8.55622 6.43034 8.51563 6.62833 8.51563C6.82631 8.51563 7.0222 8.55622 7.20388 8.63491C7.38555 8.7136 7.54917 8.8287 7.68461 8.97311C8.17206 9.44155 8.82187 9.70318 9.49792 9.70318C10.174 9.70318 10.8238 9.44155 11.3112 8.97311C11.4467 8.82869 11.6103 8.71358 11.792 8.63489C11.9737 8.5562 12.1697 8.51561 12.3677 8.51561C12.5657 8.51561 12.7616 8.5562 12.9433 8.63489C13.125 8.71358 13.2886 8.82869 13.4241 8.97311C13.9119 9.44151 14.5619 9.70309 15.2381 9.70309C15.9144 9.70309 16.5644 9.44151 17.0522 8.97311C17.1874 8.8281 17.351 8.7126 17.533 8.63387C17.7149 8.55514 17.9111 8.51488 18.1094 8.51563H18.332C18.4895 8.51563 18.6405 8.45307 18.7519 8.34172C18.8632 8.23037 18.9258 8.07935 18.9258 7.92188C18.9258 7.76441 18.8632 7.61338 18.7519 7.50203C18.6405 7.39068 18.4895 7.32813 18.332 7.32813ZM18.332 10.2969H18.1094C17.4324 10.2927 16.7808 10.5549 16.2955 11.0269C16.1598 11.1713 15.9961 11.2864 15.8143 11.3651C15.6324 11.4438 15.4364 11.4844 15.2383 11.4844C15.0402 11.4844 14.8442 11.4438 14.6623 11.3651C14.4805 11.2864 14.3167 11.1713 14.1811 11.0269C13.6935 10.5585 13.0436 10.2969 12.3675 10.2969C11.6914 10.2969 11.0415 10.5585 10.5539 11.0269C10.4185 11.1713 10.2549 11.2864 10.0732 11.3651C9.8916 11.4438 9.69574 11.4844 9.49777 11.4844C9.29981 11.4844 9.10395 11.4438 8.9223 11.3651C8.74064 11.2864 8.57705 11.1713 8.44164 11.0269C7.95411 10.5585 7.30425 10.2969 6.62818 10.2969C5.9521 10.2969 5.30225 10.5585 4.81472 11.0269C4.67938 11.1713 4.51587 11.2864 4.33429 11.365C4.15271 11.4437 3.95692 11.4843 3.75903 11.4843C3.56114 11.4843 3.36535 11.4437 3.18377 11.365C3.00219 11.2864 2.83868 11.1713 2.70334 11.0269C2.21842 10.5549 1.56729 10.2927 0.890625 10.2969H0.667969C0.510496 10.2969 0.359474 10.3594 0.248124 10.4708C0.136774 10.5821 0.0742188 10.7332 0.0742188 10.8906C0.0742188 11.0481 0.136774 11.1991 0.248124 11.3105C0.359474 11.4218 0.510496 11.4844 0.667969 11.4844H0.890625C1.08863 11.4837 1.28463 11.524 1.46631 11.6027C1.64799 11.6814 1.81142 11.7969 1.94631 11.9419C2.43361 12.4102 3.08328 12.6718 3.75918 12.6718C4.43508 12.6718 5.08475 12.4102 5.57205 11.9419C5.70749 11.7975 5.8711 11.6823 6.05278 11.6037C6.23446 11.525 6.43034 11.4844 6.62833 11.4844C6.82631 11.4844 7.0222 11.525 7.20388 11.6037C7.38555 11.6823 7.54917 11.7975 7.68461 11.9419C8.17206 12.4103 8.82187 12.6719 9.49792 12.6719C10.174 12.6719 10.8238 12.4103 11.3112 11.9419C11.4467 11.7974 11.6103 11.6823 11.792 11.6036C11.9737 11.525 12.1697 11.4844 12.3677 11.4844C12.5657 11.4844 12.7616 11.525 12.9433 11.6036C13.125 11.6823 13.2886 11.7974 13.4241 11.9419C13.9119 12.4103 14.5619 12.6718 15.2381 12.6718C15.9144 12.6718 16.5644 12.4103 17.0522 11.9419C17.1874 11.7968 17.351 11.6813 17.533 11.6026C17.7149 11.5239 17.9111 11.4836 18.1094 11.4844H18.332C18.4895 11.4844 18.6405 11.4218 18.7519 11.3105C18.8632 11.1991 18.9258 11.0481 18.9258 10.8906C18.9258 10.7332 18.8632 10.5821 18.7519 10.4708C18.6405 10.3594 18.4895 10.2969 18.332 10.2969ZM18.332 13.2656H18.1094C17.4324 13.2614 16.7808 13.5236 16.2955 13.9956C16.1598 14.1401 15.9961 14.2552 15.8143 14.3338C15.6324 14.4125 15.4364 14.4531 15.2383 14.4531C15.0402 14.4531 14.8442 14.4125 14.6623 14.3338C14.4805 14.2552 14.3167 14.1401 14.1811 13.9956C13.6935 13.5272 13.0436 13.2656 12.3675 13.2656C11.6914 13.2656 11.0415 13.5272 10.5539 13.9956C10.4185 14.14 10.2549 14.2551 10.0732 14.3338C9.8916 14.4125 9.69574 14.4531 9.49777 14.4531C9.29981 14.4531 9.10395 14.4125 8.9223 14.3338C8.74064 14.2551 8.57705 14.14 8.44164 13.9956C7.95411 13.5273 7.30425 13.2657 6.62818 13.2657C5.9521 13.2657 5.30225 13.5273 4.81472 13.9956C4.67938 14.14 4.51587 14.2551 4.33429 14.3338C4.15271 14.4125 3.95692 14.453 3.75903 14.453C3.56114 14.453 3.36535 14.4125 3.18377 14.3338C3.00219 14.2551 2.83868 14.14 2.70334 13.9956C2.21842 13.5237 1.56729 13.2615 0.890625 13.2656H0.667969C0.510496 13.2656 0.359474 13.3282 0.248124 13.4395C0.136774 13.5509 0.0742188 13.7019 0.0742188 13.8594C0.0742188 14.0169 0.136774 14.1679 0.248124 14.2792C0.359474 14.3906 0.510496 14.4531 0.667969 14.4531H0.890625C1.08863 14.4524 1.28463 14.4927 1.46631 14.5715C1.64799 14.6502 1.81142 14.7657 1.94631 14.9106C2.43361 15.379 3.08328 15.6406 3.75918 15.6406C4.43508 15.6406 5.08475 15.379 5.57205 14.9106C5.70749 14.7662 5.8711 14.6511 6.05278 14.5724C6.23446 14.4937 6.43034 14.4531 6.62833 14.4531C6.82631 14.4531 7.0222 14.4937 7.20388 14.5724C7.38555 14.6511 7.54917 14.7662 7.68461 14.9106C8.17206 15.3791 8.82187 15.6407 9.49792 15.6407C10.174 15.6407 10.8238 15.3791 11.3112 14.9106C11.4467 14.7662 11.6103 14.6511 11.792 14.5724C11.9737 14.4937 12.1697 14.4531 12.3677 14.4531C12.5657 14.4531 12.7616 14.4937 12.9433 14.5724C13.125 14.6511 13.2886 14.7662 13.4241 14.9106C13.9119 15.379 14.5619 15.6406 15.2381 15.6406C15.9144 15.6406 16.5644 15.379 17.0522 14.9106C17.1874 14.7656 17.351 14.6501 17.533 14.5714C17.7149 14.4926 17.9111 14.4524 18.1094 14.4531H18.332C18.4895 14.4531 18.6405 14.3906 18.7519 14.2792C18.8632 14.1679 18.9258 14.0169 18.9258 13.8594C18.9258 13.7019 18.8632 13.5509 18.7519 13.4395C18.6405 13.3282 18.4895 13.2656 18.332 13.2656Z" fill="#ED2891"/>
</svg>
