<svg width="182" height="33" viewBox="0 0 182 33" fill="none" xmlns="http://www.w3.org/2000/svg">
<path d="M2.65097 0.361387C2.65097 0.361387 13.7346 34.3012 60.53 23.0883C60.53 23.0883 23.8079 38.9489 2.35087 6.41453C1.35054 2.3791 2.65097 0.351349 2.65097 0.351349V0.361387Z" fill="#E7438F"/>
<path d="M2.69089 0.39151V32.6649H0V0.39151H2.69089ZM21.157 0.39151H23.8979L23.8479 32.6649H21.157V0.39151Z" fill="#757574"/>
<path d="M42.5041 2.80072H42.354C42.354 2.80072 33.321 31.1893 32.8309 32.6649H29.8999L40.6234 0.39151H44.2746C46.1052 5.81224 47.8858 11.1928 49.6364 16.5533C51.387 21.9038 53.1476 27.2743 54.9482 32.6649H52.0172C52.0172 32.6649 42.5341 2.59995 42.5041 2.80072Z" fill="#757574"/>
<path d="M67.6924 32.6649V2.60998H57.1189V0.341309H81.0168V2.60998H70.5333L70.4833 32.6649H67.6924Z" fill="#757574"/>
<path d="M111.247 21.181C111.247 22.9477 110.996 24.5539 110.506 25.9994C110.006 27.4449 109.256 28.6897 108.246 29.7337C107.235 30.7777 105.965 31.5808 104.454 32.1429C102.934 32.7151 101.143 32.9962 99.0926 32.9962C94.8612 32.9962 91.8002 31.9522 89.9095 29.8542C88.0189 27.7561 87.0686 24.8651 87.0686 21.181V0.341309H89.7595L89.8095 21.1308C89.8095 24.3431 90.5998 26.7623 92.1703 28.3785C93.7408 30.0047 96.0616 30.8078 99.1126 30.8078C102.164 30.8078 104.434 30.0047 106.025 28.3986C107.615 26.7924 108.406 24.3632 108.406 21.1208V0.341309H111.247V21.181Z" fill="#757574"/>
<path d="M128.412 11.6345C130.083 15.3788 131.773 19.1331 133.514 22.8775L135.245 26.8025H135.485C135.805 26.1399 136.105 25.4774 136.395 24.8149C136.685 24.1523 136.965 23.4998 137.255 22.8273C138.956 19.1131 140.666 15.3788 142.377 11.6345C144.088 7.89016 145.818 4.15588 147.549 0.431641H150.58V32.6649H147.839C147.839 28.1577 147.839 23.6705 147.819 19.1934C147.799 14.7163 147.789 10.2291 147.789 5.72187H147.699L145.488 10.6407C144.718 12.307 143.927 14.0035 143.127 15.7201C142.327 17.4367 141.547 19.1231 140.796 20.7794C140.046 22.4358 139.316 24.0218 138.616 25.5477C137.906 27.0735 137.265 28.4688 136.695 29.7337H133.954C133.734 29.2619 133.504 28.77 133.284 28.2681C133.054 27.7662 132.804 27.194 132.514 26.5415C132.224 25.899 131.884 25.1662 131.503 24.3631C131.123 23.5601 130.673 22.6064 130.153 21.5022C129.513 19.9864 128.772 18.3502 127.942 16.5633C127.112 14.7865 126.162 12.7588 125.101 10.4901L122.981 5.67168H122.831V32.6548H120.14V0.441679H123.311C125.041 4.15588 126.742 7.89016 128.402 11.6445L128.412 11.6345Z" fill="#757574"/>
<path d="M178.699 32.6649L175.818 23.8311H162.313C161.833 25.3369 161.363 26.8226 160.923 28.2681C160.473 29.7136 160.013 31.1792 159.523 32.6649H156.592L167.305 0.39151H170.956C172.787 5.81224 174.567 11.1928 176.318 16.5533C178.069 21.9038 179.839 27.2743 181.63 32.6649H178.699ZM175.138 21.6528C174.397 19.354 173.677 17.0653 172.947 14.8066C172.227 12.538 171.496 10.2693 170.756 8.0006C170.656 7.6593 170.546 7.24773 170.396 6.796C170.256 6.34427 170.106 5.88251 169.966 5.40066C169.826 4.92886 169.676 4.46709 169.536 4.00533C169.396 3.54356 169.276 3.15207 169.176 2.80072H169.026L167.395 8.0006L163.074 21.6528H175.138Z" fill="#757574"/>
</svg>
