<svg width="32" height="33" viewBox="0 0 32 33" fill="none" xmlns="http://www.w3.org/2000/svg">
<path d="M16.1563 0C13.0227 0 9.95943 0.953046 7.35394 2.73862C4.74845 4.52419 2.71772 7.06209 1.51854 10.0314C0.319365 13.0007 0.00560576 16.268 0.61694 19.4202C1.22828 22.5724 2.73725 25.4679 4.95303 27.7405C7.16882 30.0131 9.99191 31.5607 13.0653 32.1878C16.1387 32.8148 19.3243 32.493 22.2194 31.263C25.1145 30.0331 27.5889 27.9503 29.3299 25.278C31.0708 22.6057 32 19.4639 32 16.25C31.9952 11.9418 30.3243 7.8114 27.3541 4.76501C24.3839 1.71863 20.3568 0.00497939 16.1563 0ZM23.375 16.7273C23.3139 16.8799 23.2239 17.0186 23.1102 17.1353L17.9415 22.4365C17.7129 22.6705 17.4031 22.8018 17.0801 22.8017C16.7571 22.8015 16.4474 22.6698 16.2191 22.4356C15.9907 22.2013 15.8623 21.8837 15.8621 21.5525C15.862 21.2212 15.99 20.9034 16.2181 20.6689L19.3079 17.5H10.0625C9.73927 17.5 9.42928 17.3683 9.20072 17.1339C8.97216 16.8995 8.84376 16.5815 8.84376 16.25C8.84376 15.9185 8.97216 15.6005 9.20072 15.3661C9.42928 15.1317 9.73927 15 10.0625 15H19.3079L16.2181 11.8311C15.99 11.5966 15.862 11.2788 15.8621 10.9475C15.8623 10.6163 15.9907 10.2986 16.2191 10.0644C16.4474 9.83018 16.7571 9.69852 17.0801 9.69834C17.4031 9.69816 17.7129 9.82949 17.9415 10.0635L23.1102 15.3647C23.2804 15.5397 23.3964 15.7625 23.4435 16.0049C23.4906 16.2474 23.4668 16.4987 23.375 16.7273V16.7273Z" fill="#ED2891"/>
</svg>
