<svg width="38" height="38" viewBox="0 0 38 38" fill="none" xmlns="http://www.w3.org/2000/svg">
<path d="M19 3.5625C15.9468 3.5625 12.9621 4.46789 10.4234 6.16419C7.88471 7.86048 5.90604 10.2715 4.73762 13.0923C3.56919 15.9132 3.26347 19.0171 3.85913 22.0117C4.45479 25.0063 5.92507 27.757 8.08405 29.916C10.243 32.0749 12.9937 33.5452 15.9883 34.1409C18.9829 34.7365 22.0868 34.4308 24.9077 33.2624C27.7285 32.094 30.1395 30.1153 31.8358 27.5766C33.5321 25.0379 34.4375 22.0532 34.4375 19C34.4328 14.9072 32.8048 10.9833 29.9107 8.08926C27.0167 5.1952 23.0928 3.56723 19 3.5625V3.5625ZM26.0337 19.4534C25.9741 19.5984 25.8864 19.7301 25.7757 19.841L20.7395 24.8772C20.5168 25.0995 20.2149 25.2242 19.9002 25.2241C19.5855 25.2239 19.2837 25.0988 19.0612 24.8763C18.8387 24.6538 18.7136 24.352 18.7134 24.0373C18.7133 23.7226 18.838 23.4208 19.0603 23.198L22.0708 20.1875H13.0625C12.7476 20.1875 12.4455 20.0624 12.2228 19.8397C12.0001 19.617 11.875 19.3149 11.875 19C11.875 18.6851 12.0001 18.383 12.2228 18.1603C12.4455 17.9376 12.7476 17.8125 13.0625 17.8125H22.0708L19.0603 14.802C18.838 14.5792 18.7133 14.2774 18.7134 13.9627C18.7136 13.648 18.8387 13.3462 19.0612 13.1237C19.2837 12.9012 19.5855 12.7761 19.9002 12.7759C20.2149 12.7758 20.5168 12.9005 20.7395 13.1228L25.7757 18.159C25.9415 18.3252 26.0545 18.5369 26.1004 18.7672C26.1463 18.9975 26.1231 19.2363 26.0337 19.4534V19.4534Z" fill="#ED2891"/>
</svg>
