<svg width="20" height="20" viewBox="0 0 20 20" fill="none" xmlns="http://www.w3.org/2000/svg">
<g clip-path="url(#clip0_74_2523)">
<path d="M9.77037 0H9.76548C4.37969 0 0 4.38091 0 9.76792C0 11.9047 0.688639 13.8851 1.85957 15.4931L0.642241 19.1219L4.39679 17.9217C5.94134 18.9449 7.78381 19.5358 9.77037 19.5358C15.1562 19.5358 19.5358 15.1537 19.5358 9.76792C19.5358 4.38214 15.1562 0 9.77037 0Z" fill="#CECECE"/>
<path d="M15.4531 13.7936C15.2175 14.459 14.2822 15.0109 13.5362 15.1721C13.0258 15.2807 12.3591 15.3674 10.1149 14.437C7.24439 13.2478 5.39581 10.3308 5.25174 10.1416C5.11377 9.95234 4.0918 8.59704 4.0918 7.19534C4.0918 5.79365 4.80363 5.11111 5.09057 4.81808C5.32622 4.57754 5.71571 4.46765 6.08934 4.46765C6.21022 4.46765 6.31888 4.47376 6.41656 4.47864C6.7035 4.49085 6.84757 4.50794 7.03683 4.96093C7.27248 5.52869 7.84634 6.93039 7.91472 7.07447C7.98431 7.21854 8.05391 7.4139 7.95623 7.60316C7.86466 7.79851 7.78407 7.8852 7.63999 8.05126C7.49592 8.21731 7.35917 8.3443 7.21509 8.52256C7.08322 8.67763 6.93426 8.84368 7.10032 9.13061C7.26637 9.41144 7.84024 10.3479 8.68516 11.1001C9.77551 12.0708 10.6595 12.3809 10.9757 12.5128C11.2114 12.6104 11.4922 12.5872 11.6644 12.4041C11.8829 12.1684 12.1528 11.7777 12.4275 11.3931C12.6229 11.1172 12.8695 11.083 13.1283 11.1807C13.3921 11.2722 14.7877 11.9621 15.0746 12.1049C15.3615 12.249 15.5508 12.3174 15.6204 12.4383C15.6888 12.5592 15.6888 13.1269 15.4531 13.7936Z" fill="white"/>
</g>
<defs>
<clipPath id="clip0_74_2523">
<rect width="20" height="20" fill="white"/>
</clipPath>
</defs>
</svg>
