<svg width="20" height="20" viewBox="0 0 20 20" fill="none" xmlns="http://www.w3.org/2000/svg">
<g clip-path="url(#clip0_74_2533)">
<path d="M1.25 1.36083C-0.321663 2.99333 3.28571e-06 4.7275 3.28571e-06 9.99583C3.28571e-06 14.3708 -0.76333 18.7567 3.23167 19.7892C4.47917 20.11 15.5325 20.11 16.7783 19.7875C18.4417 19.3583 19.795 18.0092 19.98 15.6567C20.0058 15.3283 20.0058 4.66917 19.9792 4.33417C19.7825 1.82833 18.24 0.384165 16.2075 0.0916646C15.7417 0.0241646 15.6483 0.00416464 13.2583 -2.02656e-06C4.78084 0.00416464 2.9225 -0.373335 1.25 1.36083Z" fill="#CECECE"/>
<path d="M9.99834 2.61583C6.97251 2.61583 4.09917 2.34666 3.00167 5.16333C2.54834 6.32666 2.61417 7.8375 2.61417 10.0008C2.61417 11.8992 2.55334 13.6833 3.00167 14.8375C4.09667 17.6558 6.99334 17.3858 9.99667 17.3858C12.8942 17.3858 15.8817 17.6875 16.9925 14.8375C17.4467 13.6625 17.38 12.1742 17.38 10.0008C17.38 7.11583 17.5392 5.25333 16.14 3.855C14.7233 2.43833 12.8075 2.61583 9.99501 2.61583H9.99834ZM9.33667 3.94666C15.6483 3.93666 16.4517 3.235 16.0083 12.9825C15.8508 16.43 13.2258 16.0517 9.99917 16.0517C4.11584 16.0517 3.94667 15.8833 3.94667 9.9975C3.94667 4.04333 4.41334 3.95 9.33667 3.945V3.94666ZM13.94 5.1725C13.7051 5.1725 13.4798 5.26583 13.3136 5.43195C13.1475 5.59808 13.0542 5.82339 13.0542 6.05833C13.0542 6.29327 13.1475 6.51858 13.3136 6.68471C13.4798 6.85084 13.7051 6.94416 13.94 6.94416C14.1749 6.94416 14.4003 6.85084 14.5664 6.68471C14.7325 6.51858 14.8258 6.29327 14.8258 6.05833C14.8258 5.82339 14.7325 5.59808 14.5664 5.43195C14.4003 5.26583 14.1749 5.1725 13.94 5.1725ZM9.99834 6.20833C9.50036 6.20839 9.00726 6.30652 8.54721 6.49715C8.08715 6.68777 7.66914 6.96713 7.31706 7.3193C6.60598 8.03053 6.20656 8.99511 6.20667 10.0008C6.20679 11.0066 6.60641 11.971 7.31765 12.6821C8.02888 13.3932 8.99345 13.7926 9.99917 13.7925C11.0049 13.7924 11.9694 13.3928 12.6805 12.6815C13.3915 11.9703 13.791 11.0057 13.7908 10C13.7907 8.99428 13.3911 8.02979 12.6799 7.31871C11.9686 6.60764 11.0041 6.20822 9.99834 6.20833ZM9.99834 7.53916C13.2525 7.53916 13.2567 12.4625 9.99834 12.4625C6.74501 12.4625 6.74001 7.53916 9.99834 7.53916Z" fill="white"/>
</g>
<defs>
<clipPath id="clip0_74_2533">
<rect width="20" height="20" fill="white"/>
</clipPath>
</defs>
</svg>
