<svg width="53" height="61" viewBox="0 0 53 61" fill="none" xmlns="http://www.w3.org/2000/svg">
<path d="M4.50774 38.4313C4.50774 34.263 4.50774 30.1091 4.50774 25.9407C4.50774 25.6379 4.50776 25.6379 4.20519 25.6379C3.74414 25.6379 3.26867 25.6523 2.80762 25.609C1.75583 25.5081 0.90577 24.5994 0.876954 23.5321C0.848138 22.6378 0.848138 21.7436 0.876954 20.8638C0.90577 19.6811 1.87109 18.7435 3.06695 18.7291C4.0611 18.7147 5.05524 18.7291 6.03499 18.7291C6.20788 18.7291 6.29433 18.6714 6.39518 18.5272C6.5969 18.2099 6.79862 17.8782 7.04356 17.6185C8.25383 16.3637 10.3286 16.5657 11.3371 17.9936C11.4668 18.1811 11.5676 18.383 11.7117 18.556C11.7694 18.6282 11.8847 18.7003 11.9711 18.7003C13.873 18.7147 15.7748 18.7147 17.6766 18.7003C17.7775 18.7003 17.8928 18.6281 17.9504 18.5416C18.1521 18.282 18.2962 17.9791 18.5123 17.7339C19.6937 16.3637 21.855 16.4791 22.9067 17.9503C23.0508 18.1522 23.1517 18.3685 23.3102 18.556C23.3678 18.6282 23.483 18.7003 23.5695 18.7003C25.4713 18.7147 27.3732 18.7147 29.275 18.7003C29.3615 18.7003 29.4912 18.6137 29.5488 18.5416C29.837 18.0945 30.1107 17.6474 30.5574 17.3157C31.8253 16.3926 33.6406 16.6955 34.5339 17.9936C34.6636 18.1811 34.7645 18.383 34.9086 18.556C34.9662 18.6282 35.0814 18.7003 35.1679 18.7003C37.0697 18.7147 38.9716 18.7147 40.8735 18.7003C40.9599 18.7003 41.0896 18.6137 41.1472 18.5416C41.3201 18.3108 41.4642 18.0368 41.6515 17.806C42.8329 16.3493 45.1238 16.4647 46.1612 18.0224C46.2332 18.1378 46.3341 18.2532 46.3773 18.383C46.4925 18.657 46.6799 18.7147 46.968 18.7147C47.8757 18.7003 48.7978 18.7003 49.7055 18.7003C51.0743 18.7003 52.0108 19.6378 52.0252 21.008C52.0252 21.7869 52.0252 22.5657 52.0252 23.3446C52.0108 24.5994 51.0887 25.5513 49.8352 25.5946C49.4174 25.609 49.014 25.609 48.5961 25.5946C48.3656 25.5802 48.308 25.6523 48.308 25.8831C48.3224 28.6235 48.308 31.3639 48.308 34.1043C48.308 39.7006 48.308 45.3112 48.308 50.9074C48.308 51.1382 48.3656 51.1959 48.5961 51.1959C49.1292 51.2103 49.6767 51.1815 50.1954 51.3113C51.1175 51.5276 51.7515 52.4075 51.7659 53.3594C51.7803 54.2104 51.7803 55.0613 51.7659 55.9123C51.7515 57.1383 50.7717 58.1046 49.5471 58.1191C48.6538 58.1335 47.7461 58.1335 46.8528 58.1191C46.6511 58.1191 46.5358 58.1768 46.4493 58.3498C46.2188 58.7681 45.945 59.1576 45.5704 59.4605C44.3169 60.4701 42.4151 60.1816 41.5074 58.8402C41.3778 58.6527 41.2769 58.4508 41.1328 58.2633C41.0752 58.1912 40.9599 58.1191 40.8735 58.1191C38.9716 58.1046 37.0842 58.1046 35.1823 58.1191C35.0959 58.1191 34.9662 58.1912 34.9086 58.2777C34.606 58.7393 34.3322 59.2008 33.8712 59.5326C32.5745 60.4556 30.7735 60.1383 29.8802 58.8258C29.8658 58.8114 29.8658 58.797 29.8513 58.7826C29.6352 58.2056 29.2318 58.0902 28.6267 58.1047C26.9554 58.1479 25.284 58.1191 23.6127 58.1191C23.4398 58.1191 23.339 58.1768 23.2669 58.321C22.9788 58.8402 22.633 59.3162 22.1143 59.6479C20.8176 60.4412 19.1318 60.0807 18.2818 58.8258C18.1665 58.6527 18.0512 58.4941 17.9648 58.3066C17.8927 58.1623 17.7775 58.1191 17.619 58.1191C15.746 58.1191 13.8729 58.1335 11.9999 58.1191C11.8126 58.1191 11.7405 58.22 11.6685 58.3498C11.4092 58.8114 11.1066 59.2297 10.6744 59.547C9.42086 60.4412 7.6343 60.1527 6.74101 58.8835C6.61133 58.696 6.48165 58.4941 6.36638 58.2921C6.29434 58.1623 6.19349 58.1191 6.04941 58.1191C5.06967 58.1191 4.10433 58.1191 3.12459 58.1191C1.77024 58.1191 0.81934 57.1527 0.804932 55.7969C0.804932 55.0181 0.804932 54.2536 0.804932 53.4748C0.804932 52.1911 1.75584 51.2248 3.03815 51.1959C3.45598 51.1815 3.87382 51.1815 4.30606 51.1959C4.47895 51.1959 4.53659 51.1526 4.53659 50.9651C4.53659 48.4266 4.53659 45.8881 4.53659 43.3496C4.50777 41.7342 4.50774 40.0756 4.50774 38.4313ZM30.1683 38.4457C30.1683 39.4554 30.1683 40.465 30.1683 41.4746C30.1683 45.4987 30.1683 49.5372 30.1683 53.5613C30.1683 54.1959 30.2836 54.8017 30.615 55.3498C31.0184 56.0133 31.4362 56.6768 31.8397 57.3402C32.0558 57.6864 32.3151 57.672 32.5168 57.3402C32.8914 56.7345 33.2661 56.1142 33.6551 55.5084C34.0153 54.9315 34.1882 54.2969 34.1882 53.619C34.1882 50.7055 34.1882 47.792 34.1882 44.8785C34.1882 41.1285 34.1882 37.3784 34.1882 33.6284C34.1882 30.1379 34.1882 26.6475 34.1882 23.1571C34.1882 22.5657 34.0441 22.0032 33.7271 21.484C33.3237 20.8349 32.9203 20.1859 32.5168 19.5368C32.3007 19.1907 32.0414 19.1907 31.8253 19.5368C31.4651 20.1137 31.1193 20.6907 30.7447 21.2676C30.3413 21.9022 30.1539 22.5946 30.1539 23.3446C30.1828 28.3927 30.1683 33.4264 30.1683 38.4457ZM7.00034 38.4313C7.00034 43.465 7.00034 48.4843 7.00034 53.518C7.00034 54.2969 7.18766 54.9892 7.60549 55.6383C7.96569 56.2008 8.31145 56.7633 8.65725 57.3258C8.88777 57.6864 9.13269 57.7008 9.36322 57.3402C9.70901 56.7921 10.0404 56.2296 10.3862 55.696C10.8329 55.0181 11.0346 54.2681 11.0346 53.4604C11.0201 47.2295 11.0346 40.9986 11.0346 34.7678C11.0346 30.9745 11.0346 27.1812 11.0346 23.3734C11.0346 22.7821 10.9625 22.1907 10.66 21.6715C10.2277 20.9215 9.76668 20.1859 9.30562 19.4503C9.14713 19.2051 8.85896 19.2339 8.70047 19.508C8.34027 20.0705 7.99449 20.6474 7.63429 21.2099C7.18765 21.8878 7.00034 22.6234 7.00034 23.4167C7.00034 28.4216 7.00034 33.4264 7.00034 38.4313ZM41.7668 38.4457C41.7668 41.691 41.7668 44.9506 41.7668 48.1958C41.7668 49.9699 41.7812 51.7584 41.7668 53.5325C41.7668 54.2536 41.9253 54.9171 42.3143 55.5373C42.6889 56.1287 43.0491 56.7344 43.4237 57.3258C43.6542 57.6864 43.8991 57.6864 44.1296 57.3258C44.5043 56.7344 44.8645 56.1431 45.2391 55.5517C45.6137 54.9604 45.801 54.3113 45.801 53.6046C45.7866 52.4651 45.801 51.3401 45.801 50.2007C45.801 44.9218 45.801 39.6573 45.801 34.3784C45.801 30.6716 45.801 26.9792 45.801 23.2724C45.801 22.5513 45.6137 21.8878 45.2247 21.2821C44.8501 20.7051 44.5043 20.1137 44.1296 19.5368C43.9135 19.1907 43.6542 19.1907 43.4381 19.5368C43.1211 20.0561 42.8185 20.5753 42.4727 21.0801C41.9685 21.8157 41.7668 22.609 41.7668 23.5032C41.7812 28.4937 41.7668 33.4697 41.7668 38.4457ZM18.5844 38.4313C18.5844 40.3496 18.5844 42.2535 18.5844 44.1718C18.5844 47.3161 18.5844 50.4603 18.5844 53.619C18.5844 54.3257 18.7572 54.9748 19.1462 55.5662C19.5208 56.1575 19.8811 56.7489 20.2413 57.3402C20.4718 57.7008 20.7167 57.7152 20.9472 57.3402C21.293 56.7777 21.6244 56.2152 21.9846 55.6671C22.4024 55.0181 22.6041 54.3113 22.6041 53.518C22.5897 49.5228 22.6041 45.542 22.6041 41.5467C22.6041 35.4601 22.6041 29.3735 22.6041 23.2869C22.6041 22.5801 22.4313 21.9311 22.0567 21.3397C21.6821 20.7484 21.3218 20.1426 20.9472 19.5513C20.7311 19.2051 20.4718 19.2051 20.2557 19.5513C19.9531 20.0416 19.6649 20.5464 19.3336 21.0224C18.786 21.8157 18.5844 22.6667 18.5844 23.6186C18.5988 28.5514 18.5844 33.4841 18.5844 38.4313ZM27.6902 38.4601C27.6902 34.2774 27.6902 30.0947 27.6902 25.8975C27.6902 25.6956 27.6469 25.6234 27.4308 25.6234C26.7536 25.6379 26.0765 25.6234 25.3993 25.6234C25.0967 25.6234 25.0967 25.6234 25.0967 25.9407C25.0967 31.3639 25.0967 36.7871 25.0967 42.1958C25.0967 45.1093 25.0967 48.0372 25.0967 50.9507C25.0967 51.1526 25.1544 51.2247 25.3561 51.2247C26.0477 51.2103 26.7249 51.2103 27.4164 51.2247C27.647 51.2247 27.7046 51.1526 27.6902 50.9363C27.6902 46.7824 27.6902 42.614 27.6902 38.4601ZM16.1062 38.4313C16.1062 37.7246 16.1062 37.0323 16.1062 36.3255C16.1062 32.8639 16.1062 29.3879 16.1062 25.9264C16.1062 25.71 16.0485 25.6379 15.8324 25.6379C15.1553 25.6523 14.4925 25.6379 13.8153 25.6379C13.5128 25.6379 13.5127 25.6379 13.5127 25.9407C13.5127 30.6572 13.5127 35.3592 13.5127 40.0756C13.5127 43.7102 13.5127 47.3449 13.5127 50.9651C13.5127 51.1815 13.5848 51.2392 13.7865 51.2392C14.4492 51.2248 15.112 51.2392 15.7748 51.2247C16.0918 51.2247 16.1062 51.2247 16.1062 50.9074C16.1062 46.7535 16.1062 42.5852 16.1062 38.4313ZM36.6951 38.4313C36.6951 40.3496 36.6951 42.2535 36.6951 44.1718C36.6951 46.4507 36.6951 48.7151 36.6951 50.994C36.6951 51.167 36.7384 51.2392 36.9257 51.2392C37.6317 51.2248 38.3233 51.2248 39.0293 51.2392C39.2166 51.2392 39.2886 51.1815 39.2886 50.994C39.2742 50.6478 39.2886 50.2872 39.2886 49.9411C39.2886 44.6189 39.2886 39.2823 39.2886 33.9601C39.2886 31.2918 39.2886 28.6379 39.2886 25.9696C39.2886 25.6379 39.2886 25.6379 38.9428 25.6379C38.2945 25.6379 37.6461 25.6379 36.9977 25.6379C36.6952 25.6379 36.6951 25.6379 36.6951 25.9407C36.6951 30.1091 36.6951 34.263 36.6951 38.4313ZM16.3655 55.6527C16.2791 55.0469 16.1926 54.4556 16.1062 53.8642C16.0918 53.8065 15.9765 53.7344 15.9189 53.7344C15.1841 53.72 14.4493 53.7344 13.7145 53.7344C13.5704 53.7344 13.5128 53.7921 13.4983 53.9363C13.4263 54.4267 13.3398 54.9027 13.2534 55.3931C13.239 55.4796 13.2102 55.5662 13.1814 55.6671C14.2764 55.6527 15.3425 55.6527 16.3655 55.6527ZM24.823 55.6383C25.8604 55.6383 26.9265 55.6383 27.9639 55.6383C27.8775 55.0325 27.791 54.4267 27.6902 53.8353C27.6757 53.7921 27.6037 53.72 27.5605 53.72C26.7969 53.72 26.0189 53.72 25.2552 53.72C25.1976 53.72 25.1112 53.8065 25.1112 53.8642C24.9959 54.4556 24.9094 55.0469 24.823 55.6383ZM39.5479 55.6383C39.4615 55.0325 39.375 54.4411 39.2742 53.8642C39.2598 53.8065 39.1301 53.7344 39.0581 53.7344C38.3377 53.72 37.6028 53.7344 36.8824 53.72C36.724 53.72 36.6807 53.7777 36.6663 53.9363C36.6231 54.3257 36.5655 54.7296 36.4934 55.119C36.4646 55.2921 36.407 55.4652 36.3494 55.6527C37.4444 55.6383 38.5106 55.6383 39.5479 55.6383ZM13.2246 21.2244C13.311 21.8301 13.3975 22.4215 13.4983 23.0128C13.5128 23.0705 13.6136 23.1426 13.6712 23.1426C14.4204 23.1571 15.1697 23.1426 15.9189 23.1426C16.063 23.1426 16.1062 23.085 16.1206 22.9407C16.1206 22.7532 16.135 22.5513 16.1782 22.3638C16.2502 21.9888 16.3367 21.6138 16.4232 21.2244C15.357 21.2244 14.2764 21.2244 13.2246 21.2244ZM27.9928 21.2244C26.9266 21.2244 25.8459 21.2244 24.7653 21.2244C24.7942 21.3253 24.823 21.4118 24.8374 21.5128C24.9239 21.9743 25.0103 22.4503 25.0679 22.9119C25.0968 23.0994 25.14 23.1571 25.3128 23.1571C25.9324 23.1426 26.5375 23.1571 27.1571 23.1571C27.6469 23.1571 27.6325 23.1571 27.7046 22.6811C27.8054 22.1907 27.8919 21.7147 27.9928 21.2244ZM36.3782 21.2244C36.3782 21.2532 36.3638 21.2676 36.3638 21.2821C36.4646 21.859 36.5655 22.4359 36.6951 22.9984C36.7095 23.0561 36.8104 23.1282 36.8681 23.1282C37.6173 23.1427 38.3665 23.1282 39.1157 23.1426C39.2598 23.1426 39.303 23.0849 39.3174 22.9551C39.3318 22.6667 39.3606 22.3782 39.4038 22.0898C39.4615 21.8013 39.5479 21.5272 39.6199 21.2244C38.5249 21.2244 37.4443 21.2244 36.3782 21.2244ZM4.7815 55.6527C4.68064 55.0181 4.59419 54.4411 4.50774 53.8498C4.49334 53.8065 4.40692 53.7344 4.3637 53.72C4.06113 53.7056 3.75856 53.72 3.45599 53.7055C3.32632 53.7055 3.2687 53.7488 3.2831 53.8786C3.2831 54.4123 3.2831 54.9604 3.2831 55.4941C3.2831 55.5373 3.3407 55.6383 3.38393 55.6383C3.85939 55.6671 4.33485 55.6527 4.7815 55.6527ZM47.991 21.2244C48.0775 21.8301 48.1639 22.4071 48.2647 22.9984C48.2791 23.0561 48.38 23.1426 48.4377 23.1426C48.7258 23.1571 49.0139 23.1426 49.3021 23.1571C49.4606 23.1571 49.5038 23.085 49.5038 22.9407C49.4894 22.6234 49.5038 22.3061 49.5038 21.9743C49.5038 21.7292 49.5038 21.484 49.5038 21.2244C48.9707 21.2244 48.4665 21.2244 47.991 21.2244ZM3.3407 21.2244C3.3407 21.8301 3.3407 22.4071 3.3407 22.984C3.3407 23.0994 3.38392 23.1571 3.51359 23.1426C3.78734 23.1426 4.06111 23.1426 4.33486 23.1426C4.49334 23.1426 4.52218 23.085 4.53659 22.9407C4.59422 22.5225 4.65186 22.1042 4.7239 21.7003C4.75272 21.5416 4.81031 21.3974 4.86794 21.2244C4.33485 21.2244 3.84498 21.2244 3.3407 21.2244ZM48.0054 55.6383C48.3944 55.6383 48.8123 55.6383 49.2445 55.6383C49.2445 55.0325 49.2445 54.4411 49.2445 53.8498C49.2445 53.8065 49.158 53.72 49.1004 53.72C48.8699 53.7056 48.6538 53.7056 48.4232 53.72C48.3656 53.72 48.2936 53.8065 48.2791 53.8498C48.1783 54.4411 48.0918 55.0325 48.0054 55.6383Z" fill="#ED2891"/>
<path d="M28.3099 1.91133C28.2522 2.08441 28.2378 2.28637 28.1513 2.44503C27.503 3.5412 27.5318 4.69505 27.8632 5.86334C28.137 6.8297 28.4395 7.7672 28.6989 8.73355C29.1023 10.2336 29.1455 11.748 28.5404 13.2192C28.4251 13.4932 28.2954 13.7817 28.137 14.0413C27.7912 14.6615 27.0419 14.8635 26.4368 14.5173C25.8461 14.1856 25.6156 13.45 25.9758 12.8298C26.6097 11.7047 26.6385 10.5365 26.2927 9.33935C26.0189 8.37299 25.7164 7.40662 25.4426 6.44026C25.0536 5.02678 24.9816 3.59889 25.5291 2.21425C25.6588 1.86809 25.8317 1.52192 26.019 1.20461C26.3071 0.728638 26.8835 0.541127 27.4166 0.699783C27.9353 0.858439 28.281 1.34882 28.3099 1.91133Z" fill="#A7A9AC"/>
<path d="M20.9041 5.3728C20.8032 5.60357 20.76 5.87758 20.6015 6.06509C20.0684 6.71413 20.0252 7.40647 20.299 8.15648C20.5583 8.87764 20.8321 9.59879 21.0626 10.3488C21.4372 11.5748 21.3652 12.7719 20.7312 13.8969C20.3854 14.5315 19.665 14.7767 19.0599 14.4594C18.4259 14.1277 18.181 13.4065 18.5412 12.7575C18.9158 12.0796 18.8293 11.4017 18.5988 10.7238C18.3395 9.97381 18.0369 9.23821 17.8352 8.45935C17.4462 7.03145 17.7199 5.71891 18.6565 4.56505C19.0167 4.11793 19.5498 3.9737 20.0685 4.1612C20.5295 4.34871 20.8465 4.81029 20.9041 5.3728Z" fill="#A7A9AC"/>
<path d="M32.4882 14.3297C32.517 14.1999 32.517 14.0557 32.5746 13.9259C33.0069 12.9884 32.8772 12.0797 32.4594 11.171C32.128 10.4643 31.811 9.75757 31.7533 8.97871C31.6669 7.82485 32.1568 6.91615 33.0068 6.19499C33.4679 5.80556 34.1883 5.89209 34.6061 6.32479C35.0384 6.77191 35.096 7.44981 34.707 7.95463C34.6638 8.01232 34.6205 8.07003 34.5773 8.1133C34.1739 8.45946 34.1595 8.86331 34.3612 9.32485C34.5485 9.75755 34.7358 10.1902 34.9087 10.6229C35.4706 12.022 35.4994 13.421 34.8943 14.8057C34.6637 15.3393 34.2171 15.6422 33.6552 15.6134C33.1509 15.599 32.7043 15.2384 32.5602 14.748C32.517 14.6038 32.517 14.474 32.4882 14.3297Z" fill="#A7A9AC"/>
</svg>
