<svg width="58" height="75" viewBox="0 0 58 75" fill="none" xmlns="http://www.w3.org/2000/svg">
<path d="M46.7044 26.1255C48.3325 26.1832 49.2979 26.8755 49.903 28.1015C51.1565 30.6256 52.41 33.1496 53.6635 35.6737C54.6576 37.6641 55.6373 39.6545 56.6315 41.6449C56.9052 42.193 57.1934 42.7122 57.4383 43.2748C58.1155 44.8902 57.4527 46.621 55.8967 47.4142C53.7643 48.496 51.6175 49.5489 49.4852 50.6306C47.1078 51.8133 44.7305 53.0105 42.3532 54.1932C39.7454 55.4913 37.1231 56.8038 34.5153 58.1019C32.3829 59.1692 30.2505 60.2365 28.1181 61.3038C25.6832 62.5154 23.2626 63.727 20.8277 64.9241C19.1564 65.7462 17.2977 65.0683 16.4621 63.3952C15.0213 60.4673 13.5517 57.5538 12.0965 54.6259C11.0447 52.5201 9.99292 50.4143 8.95554 48.2941C8.1631 46.6787 8.79706 44.8036 10.3963 43.9959C12.7304 42.8132 15.0789 41.6593 17.4274 40.4766C18.9691 39.7122 20.5107 38.9334 22.038 38.1689C24.7178 36.8276 27.3833 35.5006 30.0632 34.1593C32.5414 32.9189 35.0195 31.6785 37.4977 30.4381C40.192 29.0823 42.8863 27.7409 45.6094 26.4139C45.984 26.2264 46.4595 26.1832 46.7044 26.1255ZM48.5486 37.1593C48.4334 37.217 48.3181 37.2458 48.2317 37.3035C45.4942 38.6737 42.771 40.044 40.0335 41.3997C35.8264 43.5055 31.6193 45.5969 27.4121 47.6883C24.7755 49.0008 22.1388 50.3277 19.4878 51.6403C18.5368 52.1162 17.5715 52.6066 16.6206 53.0682C16.3901 53.1836 16.3612 53.2845 16.4765 53.5009C16.635 53.7893 16.7935 54.0778 16.9231 54.3807C17.0096 54.5826 17.1105 54.597 17.2978 54.4961C18.2631 54.0057 19.2428 53.5297 20.2226 53.0393C23.8822 51.2076 27.5562 49.3758 31.2159 47.5441C34.1407 46.0873 37.0511 44.6306 39.9759 43.1738C41.7913 42.2651 43.5923 41.3709 45.4077 40.4622C46.6179 39.8564 47.8282 39.2507 49.0385 38.6449C49.1538 38.5872 49.2834 38.5439 49.197 38.3709C48.9664 37.9814 48.7648 37.5776 48.5486 37.1593ZM16.8367 44.7315C15.4391 44.7027 14.2721 45.8133 14.2433 47.1979C14.2289 48.5825 15.3239 49.722 16.707 49.7508C18.1046 49.7797 19.2284 48.6979 19.2861 47.3421C19.3437 45.9719 18.2487 44.7315 16.8367 44.7315ZM28.5215 57.1644C29.9047 57.1788 31.0429 56.0538 31.0429 54.6403C31.0573 53.2845 29.8903 52.1162 28.536 52.1162C27.1528 52.1162 25.9857 53.2557 26.0001 54.6403C25.9857 55.9961 27.0807 57.1932 28.5215 57.1644ZM50.0038 41.3997C48.5486 41.4142 47.468 42.5536 47.4824 44.0536C47.4968 45.3373 48.6927 46.4912 50.0182 46.4479C51.4879 46.4046 52.554 45.294 52.5252 43.8661C52.4964 42.4382 51.3438 41.3997 50.0038 41.3997ZM23.2483 41.5007C21.8219 41.5007 20.698 42.6113 20.698 44.0248C20.698 45.395 21.8507 46.5777 23.2338 46.5488C24.689 46.5056 25.7264 45.4383 25.7408 44.0248C25.7552 42.6401 24.6314 41.5007 23.2483 41.5007ZM37.1663 39.568C38.5927 39.5536 39.7021 38.4285 39.7021 37.0151C39.7021 35.6449 38.5351 34.4766 37.1807 34.5054C35.7255 34.5487 34.6738 35.5872 34.6593 37.0151C34.6593 38.5007 35.7687 39.5391 37.1663 39.568ZM22.0668 60.3952C23.4644 60.4096 24.5882 59.2702 24.6026 57.8711C24.6026 56.5153 23.4788 55.347 22.1388 55.3326C20.7124 55.3182 19.5742 56.4432 19.5598 57.8711C19.531 59.2269 20.6836 60.3952 22.0668 60.3952ZM42.4829 45.1642C41.0997 45.1354 39.9471 46.3613 39.9615 47.7171C39.9759 48.8277 40.8404 50.1979 42.4685 50.1979C43.9525 50.1979 44.9754 49.0873 45.0043 47.6739C45.0475 46.2892 43.866 45.1498 42.4829 45.1642ZM42.1947 33.2939C42.1371 34.6496 43.3474 35.8323 44.7161 35.8179C46.1137 35.8035 47.2231 34.6785 47.2231 33.2794C47.2087 31.8804 46.0704 30.7409 44.6873 30.7698C43.2465 30.7698 42.1371 32.0102 42.1947 33.2939ZM30.2937 42.9574C31.7057 43.0151 32.8295 41.9622 32.9016 40.5055C32.9736 39.193 31.8498 37.9814 30.5243 37.9237C29.1267 37.8516 27.9308 38.9478 27.8732 40.3468C27.8156 41.7603 28.8673 42.8997 30.2937 42.9574ZM33.1753 51.1066C33.1465 52.5057 34.3856 53.6451 35.7399 53.6162C37.1087 53.5874 38.2037 52.4624 38.2037 51.0633C38.1893 49.6931 37.0655 48.5681 35.7111 48.5681C34.2848 48.5537 33.1609 49.6787 33.1753 51.1066Z" fill="#A7A9AC"/>
<path d="M22.9312 35.9339C22.9312 35.7464 22.9312 35.6022 22.9312 35.458C22.9312 30.4387 22.9456 25.4194 22.9312 20.4145C22.9168 18.7414 23.9829 17.2269 25.611 16.751C25.8704 16.6789 26.1297 16.6212 26.3891 16.6212C28.1901 16.6067 29.9911 16.6067 31.7921 16.6212C33.2761 16.6356 34.7025 17.7318 35.1059 19.1597C35.2211 19.5779 35.2932 20.0106 35.2932 20.4433C35.3076 23.4722 35.3076 26.4867 35.3076 29.5156C35.3076 29.7175 35.25 29.8185 35.0771 29.9194C33.2184 30.8425 31.3598 31.78 29.4868 32.7031C27.3688 33.756 25.2508 34.8089 23.1473 35.8618C23.0897 35.8762 23.0464 35.8907 22.9312 35.9339Z" fill="#ED2891"/>
<path d="M0.368427 36.3521C0.339611 35.2271 0.714197 34.2175 1.24729 33.2511C2.81776 30.4386 4.35941 27.5972 5.92988 24.7702C7.18337 22.4913 8.40806 20.198 9.71918 17.948C10.9294 15.8566 12.8169 14.9191 15.1942 15.1211C17.5859 15.3374 19.459 16.9672 20.0785 19.2894C20.4819 20.7894 20.2658 22.2317 19.5022 23.6019C18.3496 25.6645 17.2113 27.7414 16.0731 29.8184C14.3441 32.9482 12.644 36.0781 10.8862 39.1791C10.0073 40.7368 8.63857 41.6455 6.86639 41.9339C4.18651 42.381 1.54985 40.7945 0.65656 38.1839C0.454848 37.6069 0.397246 36.9723 0.281982 36.3665C0.310798 36.3665 0.339611 36.3665 0.368427 36.3521ZM6.26128 40.3906C7.51477 40.3473 8.72504 39.6983 9.50307 38.3425C10.7422 36.1646 11.9524 33.9578 13.1627 31.7655C14.7764 28.8376 16.3901 25.8952 18.0038 22.9673C18.7097 21.6836 18.8682 20.3711 18.2343 19.0298C17.0817 16.5922 13.9407 15.972 11.938 17.7605C11.2897 18.3374 10.915 19.1019 10.5116 19.8375C9.04199 22.5058 7.57238 25.1741 6.10277 27.8424C4.96454 29.9193 3.84075 31.9963 2.67371 34.0588C2.12621 35.0396 1.83803 36.0636 2.06856 37.1887C2.41435 39.006 4.08568 40.3906 6.26128 40.3906Z" fill="#A7A9AC"/>
<path d="M31.9218 66.4098C31.9218 61.8232 35.639 58.1453 40.264 58.1597C44.7881 58.1886 48.4909 61.9098 48.4477 66.5108C48.4045 70.9964 44.7881 74.6311 40.336 74.7032C35.5814 74.7897 31.8785 70.9243 31.9218 66.4098ZM43.621 60.7847C40.9988 59.0972 37.0942 59.5011 34.8322 62.5155C32.6998 65.3569 33.3049 69.5397 36.1433 71.7032C39.0681 73.9388 43.2752 73.4339 45.5517 70.3474C47.5112 67.6935 46.9781 64.1742 45.422 62.4434C45.2059 62.7319 44.9898 63.0203 44.7737 63.3088C43.8228 64.5781 42.8718 65.8329 41.9353 67.1021C41.2149 68.0685 40.4945 69.0204 39.7741 69.9868C39.6877 70.1022 39.6156 70.2031 39.4571 70.0733C38.9385 69.6695 38.4054 69.28 37.8723 68.8762C37.7138 68.7608 37.7281 68.6454 37.8434 68.5012C39.2842 66.5973 40.7106 64.679 42.137 62.7752C42.6125 62.1261 43.1167 61.4626 43.621 60.7847Z" fill="#ED2891"/>
<path d="M35.6535 15.5101C35.8552 15.611 36.057 15.6976 36.2587 15.7986C38.4487 16.7505 40.6531 17.7024 42.8431 18.6544C43.2753 18.8419 43.2177 18.7986 43.0448 19.1736C42.9152 19.4909 42.7711 19.7938 42.6414 20.1111C42.5838 20.2553 42.5261 20.2842 42.3677 20.2121C41.4023 19.7794 40.4226 19.3755 39.4573 18.9572C38.3911 18.4957 37.3249 18.0342 36.2587 17.5582C36.129 17.5005 35.9993 17.3995 35.9129 17.2842C35.0916 16.1591 33.9966 15.438 32.6423 15.1351C32.2821 15.063 31.9075 15.0341 31.5473 15.0341C29.8327 15.0197 28.1182 15.0341 26.4036 15.0485C26.2019 15.0485 26.1587 14.9764 26.1587 14.8034C26.1587 14.4284 26.1587 14.0389 26.1587 13.6639C26.1587 13.462 26.2451 13.4043 26.4324 13.4043C28.2046 13.4043 29.9768 13.4043 31.749 13.4043C31.9219 13.4043 32.0659 13.4187 32.0803 13.6495C32.0803 13.7072 32.1812 13.7793 32.2533 13.8081C32.3253 13.837 32.4262 13.8226 32.5126 13.8226C36.2155 13.8226 39.9183 13.8226 43.6211 13.8226C43.8949 13.8226 43.9813 13.9091 43.9669 14.1831C43.9525 14.5149 43.9525 14.8466 43.9669 15.1784C43.9813 15.3803 43.9237 15.4668 43.6932 15.4668C41.1142 15.4524 38.5351 15.4668 35.9705 15.4524C35.8697 15.4524 35.7688 15.4524 35.668 15.4524C35.668 15.4524 35.6535 15.4812 35.6535 15.5101Z" fill="#A7A9AC"/>
<path d="M29.1122 11.9623C27.5562 11.9623 25.9857 11.9623 24.4296 11.9623C24.1415 11.9623 24.0551 11.8902 24.0551 11.6017C24.0695 10.693 24.0695 9.78437 24.0551 8.87571C24.0551 8.61609 24.1271 8.52954 24.4008 8.52954C27.5418 8.52954 30.6971 8.52954 33.838 8.52954C34.083 8.52954 34.1982 8.58723 34.1982 8.86127C34.1838 9.78436 34.1838 10.7219 34.1982 11.645C34.1982 11.8902 34.1262 11.9623 33.8813 11.9623C32.2676 11.9479 30.6971 11.9623 29.1122 11.9623Z" fill="#A7A9AC"/>
<path d="M29.1122 7.08697C28.4062 7.08697 27.6858 7.08697 26.9799 7.08697C26.7637 7.08697 26.6773 7.02928 26.6773 6.79851C26.6917 5.51484 26.6485 4.21673 26.6917 2.93306C26.7493 1.33208 28.2045 0.351301 29.6021 0.639767C30.6106 0.856116 31.5184 1.76479 31.5184 3.03403C31.5184 4.27444 31.5184 5.51484 31.5328 6.75524C31.5328 7.02928 31.4319 7.08697 31.187 7.08697C30.4954 7.07255 29.8038 7.08697 29.1122 7.08697Z" fill="#ED2891"/>
<path d="M17.485 20.8612C17.485 21.3516 17.3553 21.7987 17.1248 22.2314C15.6408 24.9141 14.1711 27.5969 12.6871 30.2796C12.5719 30.4959 12.471 30.5104 12.2693 30.395C10.7564 29.544 9.22923 28.7075 7.70198 27.8709C7.50027 27.7555 7.47143 27.6401 7.5867 27.4382C8.81137 25.2459 10.0216 23.0535 11.2319 20.8612C11.4768 20.3997 11.7362 19.9525 11.9812 19.491C12.5575 18.3804 13.7245 17.7746 15.0212 17.9477C16.1018 18.0919 17.1104 18.8996 17.3986 20.14C17.4274 20.3708 17.4562 20.616 17.485 20.8612Z" fill="#ED2891"/>
</svg>
