<svg width="73" height="79" viewBox="0 0 73 79" fill="none" xmlns="http://www.w3.org/2000/svg">
<path d="M54.5889 53.2148C54.8483 52.4793 55.1653 51.8014 55.3382 51.0802C55.6551 49.7388 55.367 48.4263 54.9491 47.1282C54.0126 44.1859 52.1252 41.9503 49.7479 40.0608C47.3273 38.1569 44.6474 36.7579 41.7947 35.6473C41.4921 35.5319 41.3912 35.3877 41.3624 35.0559C41.1319 31.6665 40.8726 28.2626 40.6132 24.8731C40.6132 24.8154 40.5988 24.7722 40.5844 24.6568C39.7631 24.6568 38.9275 24.6568 38.063 24.6568C38.0486 24.4116 38.0342 24.2096 38.0342 24.0221C38.0342 22.825 38.0342 21.6279 38.0198 20.4307C38.0198 20.0846 38.1206 19.9836 38.4664 19.9836C42.9185 19.998 47.3705 19.9836 51.8226 19.998C52.2116 19.998 52.3413 19.9115 52.3701 19.4932C52.6151 15.873 53.5804 12.4691 55.3237 9.28156C57.4273 5.43055 60.4242 2.4305 64.1126 0.108358C64.4152 -0.0791445 64.5448 -0.0214505 64.7177 0.267015C65.2652 1.20453 65.8127 2.12762 66.3891 3.03628C66.5908 3.35359 66.5187 3.4834 66.2162 3.67091C61.6488 6.55556 58.5511 10.5652 57.1535 15.8009C56.8222 17.0701 56.6925 18.3826 56.462 19.6807C56.4476 19.7673 56.462 19.8538 56.462 19.998C61.8073 19.998 67.1095 19.998 72.4548 19.998C72.4548 21.5702 72.4548 23.0846 72.4548 24.6568C71.8065 24.6568 71.1581 24.6423 70.5241 24.6568C69.847 24.6712 69.9334 24.5414 69.8614 25.2625C69.6885 27.4405 69.5444 29.6184 69.3859 31.7963C69.1842 34.5944 68.9825 37.3781 68.7808 40.1762C68.5791 42.9743 68.3774 45.758 68.1757 48.5561C67.9451 51.7437 67.7146 54.9312 67.4697 58.1187C67.2679 60.9601 67.0518 63.8015 66.8501 66.6573C66.6484 69.4266 66.4467 72.1959 66.245 74.9507C66.1729 75.845 66.1153 76.7392 66.0577 77.619C66.0433 77.9075 65.9712 78.0373 65.6398 78.0229C61.4327 78.0084 57.24 78.0229 53.0329 78.0084C52.9464 78.0084 52.8456 77.994 52.7159 77.994C52.7735 77.9075 52.8024 77.8498 52.86 77.7921C54.3008 76.3065 55.0644 74.518 55.1364 72.4411C55.1653 71.4603 55.1508 70.4651 55.1508 69.4843C55.1508 69.4122 55.122 69.3256 55.1076 69.2102C54.5025 69.2102 53.9118 69.2102 53.2634 69.2102C53.3354 68.9074 53.4075 68.6766 53.4507 68.4314C53.7101 66.9169 53.2202 65.6621 52.1396 64.6092C51.8658 64.3352 51.765 64.09 51.7794 63.715C51.7938 62.7775 51.7938 62.7775 52.6871 62.5323C54.7186 61.9986 56.3611 60.8736 57.6146 59.2005C58.5079 58.0034 58.6376 56.6764 57.9748 55.3206C57.3409 54.0081 56.2603 53.3014 54.7906 53.2004C54.733 53.2293 54.6322 53.2293 54.5889 53.2148Z" fill="#ED2891"/>
<path d="M28.7988 53.1715C21.6957 53.1715 14.5925 53.1715 7.48942 53.1715C5.8325 53.1715 4.06033 51.8446 3.74336 50.3157C3.52724 49.2628 3.81539 48.282 4.23322 47.3301C5.06889 45.455 6.35119 43.9406 7.92166 42.6281C10.7024 40.3204 13.7569 38.5175 17.1427 37.2915C20.8888 35.9357 24.7646 35.3443 28.7412 35.402C33.2941 35.4741 37.6741 36.354 41.8956 38.0703C44.9645 39.3252 47.8317 40.9261 50.2234 43.2627C51.8804 44.8925 52.9898 46.8253 53.4076 49.1186C53.8975 51.8301 52.0388 53.1282 50.0361 53.1426C42.9618 53.1715 35.8875 53.1571 28.7988 53.1715ZM17.9784 46.782C19.059 46.782 19.8947 45.931 19.8803 44.8493C19.8659 43.7819 19.0302 42.9598 17.9784 42.9454C16.9122 42.9454 16.0477 43.7964 16.0477 44.8637C16.0622 45.931 16.9122 46.782 17.9784 46.782ZM37.213 46.7531C37.213 47.8349 38.0487 48.7003 39.1005 48.7147C40.1235 48.7291 41.0167 47.8493 41.0312 46.8253C41.0456 45.7579 40.1955 44.8925 39.1149 44.8781C38.0631 44.8637 37.213 45.7002 37.213 46.7531ZM29.1014 44.0271C29.9658 44.0271 30.6862 43.306 30.6862 42.455C30.6862 41.604 29.9514 40.854 29.1158 40.854C28.2369 40.854 27.5165 41.5752 27.5165 42.455C27.5309 43.3204 28.2369 44.0271 29.1014 44.0271Z" fill="#A7A9AC"/>
<path d="M28.6116 71.5467C36.6656 71.5467 44.7053 71.5467 52.7593 71.5467C53.1051 71.5467 53.206 71.6332 53.206 71.9938C53.1916 73.6813 52.6873 75.1525 51.4482 76.3208C50.5549 77.1574 49.4887 77.5468 48.264 77.5468C43.4518 77.5468 38.6539 77.5468 33.8417 77.5468C28.3666 77.5468 22.8916 77.5468 17.4166 77.5468C14.5782 77.5468 11.7399 77.5468 8.90148 77.5468C6.29364 77.5468 4.62231 75.6285 4.14685 73.6381C4.01718 73.1188 4.00277 72.5708 3.94514 72.0371C3.90192 71.6621 4.04599 71.5467 4.435 71.5467C7.41745 71.5611 10.3999 71.5467 13.3824 71.5467C18.454 71.5323 23.54 71.5323 28.6116 71.5467Z" fill="#A7A9AC"/>
<path d="M28.5681 70.0902C22.0269 70.0902 15.4856 70.0902 8.95883 70.0758C8.44014 70.0758 7.90704 70.0181 7.40277 69.8883C6.32217 69.5998 5.60178 68.7056 5.58737 67.7681C5.57296 66.845 6.29335 65.9219 7.35954 65.6046C7.84941 65.4603 8.39692 65.4027 8.91561 65.4027C16.2493 65.3882 23.5973 65.4027 30.931 65.4027C36.7518 65.4027 42.5582 65.4027 48.379 65.4027C49.1282 65.4027 49.8486 65.5036 50.4826 65.9219C51.9378 66.8738 51.9522 68.6335 50.4826 69.5854C49.8775 69.9748 49.2003 70.1046 48.4943 70.1046C45.3966 70.1046 42.2989 70.1046 39.2012 70.1046C35.6568 70.0902 32.1124 70.0902 28.5681 70.0902Z" fill="#ED2891"/>
<path d="M50.2809 60.6719C48.624 60.643 47.2121 59.9796 45.8721 59.1142C45.2382 58.7103 44.6042 58.3065 43.9703 57.9314C42.9761 57.3401 42.0108 57.3834 41.0743 58.0901C40.4691 58.5372 39.8784 58.9843 39.2589 59.4026C36.7519 61.0613 34.1585 61.0469 31.6371 59.3305C31.1184 58.9843 30.5997 58.6093 30.081 58.2488C28.669 57.268 27.4876 57.268 26.0756 58.2343C25.4993 58.6238 24.9518 59.0565 24.3754 59.4315C22.0702 60.9603 19.7073 60.9892 17.3155 59.6334C16.624 59.244 15.9612 58.7824 15.284 58.3642C15.0535 58.2199 14.8085 58.0757 14.578 57.9459C13.4254 57.2824 12.316 57.3834 11.2786 58.1911C10.8031 58.5516 10.3277 58.8978 9.86663 59.2584C7.04267 61.5517 3.71441 60.5853 1.76934 58.9555C1.38032 58.6238 0.976899 58.3064 0.847228 57.7584C0.703148 57.1237 0.948101 56.4747 1.4956 56.1574C2.0287 55.8401 2.69146 55.9122 3.15251 56.3882C3.8585 57.0949 4.67976 57.5276 5.6595 57.6863C6.48076 57.8161 7.22996 57.643 7.89272 57.167C8.48345 56.7343 9.05978 56.2728 9.66492 55.8545C10.4862 55.2631 11.3651 54.816 12.388 54.6718C13.9153 54.4699 15.2552 54.9747 16.5231 55.768C17.3299 56.2728 18.108 56.8064 18.9436 57.2536C20.2692 57.9747 21.5947 57.8882 22.8482 57.0516C23.5398 56.5901 24.1881 56.0853 24.8941 55.6382C27.0121 54.2824 29.1445 54.2824 31.2624 55.6093C31.8676 55.9843 32.4439 56.4026 33.0202 56.8064C34.8068 58.0613 36.3773 58.0324 38.135 56.7343C38.8122 56.2295 39.4894 55.7391 40.2098 55.3064C41.7803 54.3689 43.4228 54.3977 45.022 55.2343C45.9874 55.7391 46.8951 56.3449 47.8172 56.9218C49.2004 57.7872 50.6556 57.9459 52.1972 57.4266C52.9032 57.1814 53.4651 56.7343 53.9262 56.1718C54.1855 55.8401 54.5025 55.5949 54.9491 55.566C55.5255 55.5083 55.9865 55.7391 56.2747 56.2439C56.5916 56.792 56.5628 57.3689 56.1738 57.8738C55.1797 59.2007 53.883 60.0517 52.2549 60.3978C51.5633 60.5421 50.9149 60.5853 50.2809 60.6719Z" fill="#ED2891"/>
<path d="M28.5971 62.2149C35.4985 62.2149 42.4143 62.2149 49.3157 62.2004C49.6903 62.2004 49.8776 62.287 49.8344 62.7053C49.8056 63.0514 49.8056 63.412 49.8344 63.7726C49.8632 64.1332 49.7047 64.2197 49.3733 64.2197C47.2266 64.2053 45.0654 64.2197 42.9186 64.2197C37.9334 64.2197 32.9338 64.2197 27.9487 64.2197C21.249 64.2197 14.5493 64.2197 7.86401 64.2197C7.34532 64.2197 7.34532 64.2197 7.34532 63.7005C7.34532 63.3543 7.35972 63.0081 7.3309 62.6764C7.30208 62.3303 7.41735 62.2149 7.76314 62.2149C10.0828 62.2293 12.4169 62.2149 14.7366 62.2149C19.3615 62.2149 23.9865 62.2149 28.5971 62.2149Z" fill="#ED2891"/>
</svg>
