<svg width="54" height="54" viewBox="0 0 54 54" fill="none" xmlns="http://www.w3.org/2000/svg">
<path d="M3.93337 38.1308C8.55833 38.1308 13.1545 38.1308 17.7938 38.1308C17.7938 34.2221 17.7938 30.299 17.7938 26.3759C17.8803 26.3759 17.9523 26.3614 18.0244 26.3614C20.8483 26.3614 23.6867 26.3182 26.5107 26.5201C28.4269 26.6643 30.3288 26.8086 32.245 27.0249C33.8155 27.198 35.386 27.4143 36.942 27.674C40.0541 28.1788 43.123 28.8711 46.1055 29.9528C47.5463 30.4865 48.9439 31.1067 50.2406 31.9577C51.1627 32.5635 51.9983 33.2702 52.6323 34.1933C53.151 34.9721 53.4391 35.8375 53.4391 36.775C53.4391 40.0203 53.4391 43.2655 53.4391 46.4963C53.4391 48.7319 53.4391 50.9675 53.4391 53.2031C53.4391 53.3907 53.3959 53.4628 53.1942 53.4628C52.0416 53.4483 50.8745 53.4483 49.7219 53.4628C49.5346 53.4628 49.4914 53.4051 49.4914 53.232C49.4914 50.2464 49.4914 47.2607 49.4914 44.2896C49.4914 44.203 49.4914 44.1165 49.4914 44.0011C34.3054 44.0011 19.1482 44.0011 3.94778 44.0011C3.94778 47.1454 3.94778 50.2752 3.94778 53.4483C3.84693 53.4483 3.77489 53.4628 3.70285 53.4628C2.5358 53.4628 1.36876 53.4628 0.216122 53.4628C0.0432261 53.4628 0 53.4051 0 53.2464C0 46.554 0 39.8616 0 33.1692C0 29.9528 0 26.722 0 23.5056C0 22.5681 0.576322 21.7748 1.45521 21.5441C2.69429 21.2123 3.93337 22.1354 3.93337 23.4191C3.94778 26.722 3.93337 30.025 3.93337 33.3279C3.93337 34.8712 3.93337 36.4145 3.93337 37.9577C3.93337 38.0154 3.93337 38.0587 3.93337 38.1308Z" fill="#ED2891"/>
<path d="M40.1697 19.0058C43.8293 17.2029 45.9473 14.3471 45.9329 10.222C45.9329 6.11139 43.8149 3.25559 40.1985 1.46711C42.6334 0.32767 46.927 0.284394 50.1256 3.24116C53.6844 6.52967 54.1598 11.823 51.5087 15.6307C48.728 19.626 43.8293 20.5491 40.1697 19.0058Z" fill="#A7A9AC"/>
<path d="M16.5835 31.2514C16.569 34.4101 14.0188 36.9486 10.8779 36.9342C7.75137 36.9197 5.20116 34.3524 5.22998 31.2225C5.24439 28.0927 7.7946 25.5542 10.9211 25.5542C14.0477 25.5686 16.5835 28.1071 16.5835 31.2514Z" fill="#ED2891"/>
<path d="M8.44308 16.1497C8.52953 15.6594 8.60157 15.1978 8.67361 14.7507C8.70242 14.6065 8.6592 14.5199 8.57275 14.4334C8.25578 14.1161 7.95321 13.7699 7.62183 13.4382C7.80913 13.4093 8.01084 13.3805 8.21255 13.3516C8.4719 13.3084 8.73124 13.2795 8.97617 13.2362C9.06262 13.2218 9.16348 13.1497 9.20671 13.0776C9.39401 12.717 9.58131 12.342 9.7542 11.9814C9.78302 11.9382 9.81184 11.8805 9.85506 11.8083C9.91269 11.9237 9.95592 11.9958 9.99914 12.068C10.172 12.3997 10.3449 12.7458 10.5034 13.0776C10.5611 13.193 10.6331 13.2363 10.7484 13.2507C11.2094 13.3084 11.6561 13.3805 12.1459 13.4526C12.0883 13.5247 12.0451 13.568 12.0018 13.6113C11.7137 13.8997 11.4255 14.1738 11.1374 14.4478C11.0365 14.5344 11.0077 14.6209 11.0365 14.7507C11.1086 15.1401 11.1806 15.5295 11.2382 15.919C11.2526 15.9911 11.2526 16.0488 11.267 16.1642C10.8204 15.9334 10.417 15.7171 10.0135 15.5007C9.89828 15.443 9.81183 15.4286 9.69657 15.5007C9.35078 15.6882 8.99058 15.8757 8.64479 16.0632C8.60157 16.0776 8.52953 16.1065 8.44308 16.1497Z" fill="#A7A9AC"/>
<path d="M32.1154 7.77018C31.6832 7.53941 31.2942 7.35191 30.9052 7.13556C30.7467 7.04902 30.6314 7.04902 30.4729 7.13556C30.0839 7.35191 29.6949 7.55383 29.2627 7.7846C29.3059 7.51056 29.3347 7.29421 29.3779 7.06344C29.4067 6.86151 29.4356 6.6596 29.4788 6.4721C29.5364 6.27017 29.4644 6.14036 29.3203 5.99613C29.0177 5.69324 28.7296 5.37591 28.4414 5.0586C28.7007 5.01533 28.9889 4.94322 29.2915 4.9288C29.8102 4.9288 30.1127 4.71244 30.2712 4.22205C30.3577 3.94801 30.5306 3.68839 30.6746 3.3855C30.7755 3.573 30.8475 3.73167 30.934 3.89032C31.0493 4.13552 31.1789 4.36629 31.2798 4.61148C31.3518 4.81341 31.4959 4.85668 31.6832 4.88553C32.101 4.94322 32.5333 5.00092 32.9799 5.11631C32.8791 5.20285 32.7926 5.27496 32.6918 5.3615C32.4468 5.6067 32.1875 5.83747 31.957 6.08266C31.8993 6.14036 31.8561 6.27017 31.8705 6.35671C31.9281 6.76056 32.0002 7.14999 32.0722 7.55384C32.101 7.58269 32.101 7.6548 32.1154 7.77018Z" fill="#A7A9AC"/>
<path d="M20.5747 3.1404C20.3441 3.37117 20.128 3.60195 19.9119 3.8183C19.8831 3.84714 19.8543 3.87599 19.8254 3.90483C19.4364 4.27984 19.4364 4.27984 19.5373 4.81351C19.5949 5.14524 19.6525 5.46256 19.6958 5.7943C19.6958 5.80872 19.6814 5.82314 19.6669 5.85198C19.3644 5.69333 19.0474 5.56351 18.7737 5.37601C18.4279 5.13082 18.1253 5.13082 17.7651 5.37601C17.4913 5.56351 17.1744 5.69332 16.8286 5.8664C16.8862 5.49139 16.915 5.14523 17.0159 4.82792C17.1311 4.42407 17.0447 4.13562 16.7133 3.876C16.454 3.67408 16.2379 3.40002 15.9929 3.1404C16.2667 3.09713 16.5404 3.05387 16.7998 3.0106C16.9006 2.99617 17.0015 2.96733 17.1023 2.96733C17.4481 2.98175 17.6354 2.79425 17.7507 2.49136C17.8804 2.1452 18.0677 1.82789 18.255 1.45288C18.4567 1.87116 18.6584 2.24617 18.8313 2.6356C18.9177 2.85195 19.0474 2.93849 19.2779 2.95291C19.6381 2.98176 19.9983 3.05386 20.3585 3.09713C20.4594 3.11156 20.517 3.12598 20.5747 3.1404Z" fill="#A7A9AC"/>
</svg>
