<svg width="57" height="49" viewBox="0 0 57 49" fill="none" xmlns="http://www.w3.org/2000/svg">
<path d="M8.33765 48.7494C8.33765 48.5764 8.33765 48.4321 8.33765 48.2735C8.33765 44.9128 8.33765 41.5666 8.33765 38.206C8.33765 37.9464 8.39527 37.8743 8.66902 37.8743C13.3372 37.8887 18.0054 37.8743 22.6736 37.8743C27.1977 37.8743 31.7074 37.8743 36.2315 37.8743C40.7412 37.8743 45.2509 37.8743 49.7605 37.8743C51.8497 37.8743 53.9389 37.8743 56.028 37.8599C56.2874 37.8599 56.3882 37.9176 56.3882 38.206C56.3738 41.6243 56.3738 45.0426 56.3882 48.461C56.3882 48.7062 56.2873 48.7639 56.0712 48.7639C52.2243 48.7639 48.3774 48.7639 44.516 48.7639C37.9892 48.7639 31.4768 48.7639 24.95 48.7639C19.547 48.7639 14.1441 48.7639 8.74107 48.7639C8.6114 48.7783 8.48173 48.7639 8.33765 48.7494Z" fill="#ED2891"/>
<path d="M28.6098 0.748937C29.8633 0.67682 31.1024 0.590271 32.3559 0.547001C34.0848 0.489308 35.8138 0.561432 37.5427 0.792205C39.9345 1.10952 42.2397 1.6576 44.3001 2.98454C46.5189 4.42686 47.758 6.47497 48.0461 9.1C48.3055 11.35 47.9885 13.5424 47.1961 15.6482C46.274 18.1001 44.617 19.9752 42.4703 21.4319C40.7125 22.629 38.7674 23.4223 36.7359 24.0425C35.1078 24.5329 33.4365 24.8935 31.7507 25.1243C30.771 25.2541 29.7624 25.2973 28.7683 25.3839C27.2555 25.5137 25.7282 25.6435 24.2154 25.7445C22.4432 25.8743 20.671 25.9752 18.8988 26.105C16.6512 26.2493 14.4035 26.3935 12.1703 26.5522C10.7727 26.6531 9.37517 26.8406 8.02082 27.2012C6.81055 27.5329 5.6291 27.9512 4.62054 28.7301C3.85692 29.307 3.2806 30.0282 3.12211 31.009C3.00685 31.7445 3.1077 32.4657 3.36704 33.1436C3.55435 33.6196 3.77047 34.0955 4.001 34.6148C3.88573 34.5427 3.79928 34.485 3.72724 34.4128C1.82539 32.8263 0.860055 30.807 1.04736 28.3118C1.19144 26.2493 2.18559 24.6771 3.92895 23.581C5.32652 22.7011 6.86818 22.1531 8.46746 21.7636C10.4846 21.2588 12.5305 20.9559 14.5908 20.8117C17.6021 20.5954 20.6134 20.4079 23.639 20.2059C25.1807 20.105 26.7368 20.0184 28.2784 19.8598C30.8863 19.5857 33.4509 19.1242 35.929 18.2155C37.5427 17.6097 39.0556 16.8309 40.3091 15.6193C41.8363 14.1337 42.4558 12.2875 42.427 10.1817C42.3838 7.10959 40.8998 4.91726 38.3064 3.41724C36.5486 2.39319 34.6323 1.81626 32.6584 1.45567C31.3761 1.2249 30.0794 1.08067 28.7827 0.893167C28.7395 0.893167 28.6962 0.878738 28.653 0.864315C28.6098 0.821045 28.6098 0.792207 28.6098 0.748937Z" fill="#A7A9AC"/>
<path d="M6.98332 43.3121C6.98332 45.0285 6.98332 46.7449 6.98332 48.4468C6.98332 48.692 6.91128 48.7786 6.66634 48.7786C6.00358 48.7641 5.3264 48.7641 4.66364 48.7786C4.44752 48.7786 4.38989 48.7209 4.38989 48.5045C4.38989 45.0573 4.38989 41.6102 4.38989 38.163C4.38989 37.9611 4.44752 37.8746 4.66364 37.889C5.3264 37.9034 6.00358 37.9034 6.66634 37.889C6.91128 37.889 6.99773 37.9611 6.99773 38.2063C6.96891 39.9082 6.98332 41.6102 6.98332 43.3121Z" fill="#ED2891"/>
<path d="M0.787598 43.3265C0.787598 41.6246 0.787598 39.9226 0.787598 38.2063C0.787598 37.9611 0.859628 37.8746 1.10456 37.889C1.7097 37.9034 2.31483 37.9034 2.90556 37.889C3.12168 37.889 3.20812 37.9467 3.20812 38.1774C3.20812 41.5958 3.20812 45.0141 3.20812 48.4324C3.20812 48.7064 3.13609 48.793 2.86234 48.7785C2.28602 48.7641 1.69529 48.7641 1.11897 48.7785C0.874039 48.7785 0.78759 48.7208 0.801998 48.4612C0.78759 46.7449 0.787598 45.0285 0.787598 43.3265Z" fill="#ED2891"/>
</svg>
