<svg width="63" height="54" viewBox="0 0 63 54" fill="none" xmlns="http://www.w3.org/2000/svg">
<path d="M17.296 24.3881C17.4113 24.3881 17.4833 24.3881 17.5554 24.3881C20.6243 24.4025 23.6788 24.4169 26.7477 24.4458C29.8742 24.4602 33.0007 24.489 36.1417 24.5035C37.6833 24.5179 39.225 24.5611 40.7666 24.5756C41.487 24.5756 42.0922 24.7919 42.5964 25.2967C43.1295 25.8448 43.4321 26.5083 43.4465 27.2871C43.4753 28.441 43.0431 29.3641 42.0201 29.941C41.804 30.0564 41.5446 30.1574 41.2997 30.1718C40.2047 30.2295 39.0953 30.2728 38.0003 30.2872C34.5424 30.3305 31.0701 30.3449 27.6122 30.3737C26.9206 30.3737 26.229 30.3882 25.5518 30.3882C25.4077 30.3882 25.3501 30.4314 25.3645 30.5756C25.3789 31.0372 25.2925 30.9939 25.7679 30.9939C28.4622 31.0084 31.1421 31.0228 33.8364 31.0372C36.401 31.0516 38.9512 31.0805 41.5158 31.1093C42.265 31.1238 42.9998 31.1814 43.7491 31.1814C44.2677 31.1959 44.6712 31.4122 45.0458 31.7295C46.3713 32.8401 46.4722 34.643 45.3195 35.9411C44.8008 36.5325 44.1669 36.7921 43.4177 36.8065C41.4582 36.8498 39.4843 36.9075 37.5104 36.9219C34.3407 36.9508 31.1565 36.9363 27.9868 36.9507C27.5977 36.9507 27.2087 36.994 26.8197 37.0085C26.7621 37.0085 26.69 37.0085 26.6612 37.0517C26.6036 37.1094 26.5315 37.1815 26.5171 37.2536C26.5171 37.3113 26.5892 37.4267 26.6468 37.4411C26.935 37.4988 27.2087 37.5709 27.4969 37.5709C30.2344 37.5998 32.9863 37.6287 35.7238 37.6431C37.6113 37.6575 39.5131 37.6431 41.4006 37.6431C41.4582 37.6431 41.5158 37.6431 41.5591 37.6575C42.3659 38.0469 43.0863 38.5229 43.4321 39.4171C43.9796 40.7729 43.4321 42.2873 42.1642 43.0229C41.7031 43.297 41.2277 43.4124 40.6802 43.4124C37.7554 43.398 34.8305 43.398 31.9201 43.398C29.6869 43.398 27.4537 43.4268 25.2204 43.4412C24.9323 43.4412 24.6441 43.47 24.3559 43.5133C24.2695 43.5277 24.1542 43.5998 24.0966 43.6864C23.9813 43.8595 24.0534 44.0037 24.2695 44.0181C24.8602 44.047 25.4654 44.0903 26.0561 44.0903C28.2029 44.1047 30.3641 44.1047 32.5109 44.1191C33.7355 44.1335 34.9602 44.1768 36.1849 44.2057C37.6113 44.2345 38.519 45.1576 38.7927 46.297C39.0809 47.4942 38.7207 48.8788 37.5104 49.5711C37.1214 49.8019 36.6748 49.8452 36.2425 49.8596C33.4186 49.9029 30.5802 49.9605 27.7562 49.975C24.3704 49.9894 20.9845 49.9894 17.613 49.975C15.9705 49.9605 14.328 49.9173 12.6855 49.8596C11.2159 49.8163 9.83272 49.4125 8.50719 48.8211C5.38066 47.4076 3.07538 45.1432 1.54814 42.0566C1.04386 41.0325 0.712482 39.9364 0.481955 38.8114C0.251428 37.6575 0.179386 36.5036 0.265833 35.3354C0.381097 33.619 0.827751 31.9891 1.53374 30.417C2.1821 28.9891 3.13302 27.8064 4.19921 26.6814C7.31133 23.3785 10.5099 20.162 13.7517 17.0033C15.3654 15.4168 17.0079 13.8591 18.6504 12.3014C18.8953 12.0706 19.1691 11.811 19.4861 11.6812C21.2006 10.9889 23.1601 12.186 23.3618 14.0178C23.4338 14.7101 23.3186 15.3303 22.9296 15.9072C21.7193 17.6957 20.5378 19.513 19.3276 21.3159C18.6792 22.2823 18.0309 23.2342 17.3681 24.2006C17.3681 24.2439 17.3393 24.2871 17.296 24.3881Z" fill="#ED2891"/>
<path d="M46.256 22.4837C46.4577 22.7 46.645 22.902 46.8323 23.075C49.9732 26.2193 53.1286 29.3636 56.2695 32.5223C58.0129 34.2819 59.7418 36.0416 61.4708 37.8156C61.8742 38.2195 62.2488 38.6666 62.4793 39.2002C62.5802 39.431 62.6378 39.6762 62.6378 39.9214C62.6522 40.3541 62.6666 40.8012 62.609 41.2339C62.5081 41.9407 62.1191 42.5032 61.6293 43.0224C61.1394 43.5416 60.5343 43.8734 59.8715 44.0897C59.6986 44.1474 59.6842 44.2195 59.7706 44.3637C59.9003 44.6089 60.03 44.8542 60.1596 45.0993C60.347 45.4888 60.3181 45.9215 60.3325 46.3253C60.419 47.8686 59.6698 48.9359 58.3875 49.6859C58.0129 49.9023 57.595 49.9744 57.1628 50.0033C56.3415 50.0609 55.5347 50.0177 54.7999 49.6138C54.5406 49.4696 54.5117 49.4985 54.4253 49.7581C54.1515 50.5514 53.7481 51.2725 53.0421 51.7918C52.2353 52.3831 51.3132 52.5562 50.3334 52.4841C49.5266 52.4264 48.8782 52.037 48.2875 51.5177C47.8985 51.1716 47.5239 50.8254 47.1493 50.4792C47.106 50.436 47.0628 50.4071 47.0196 50.3638C46.9476 50.609 46.8899 50.8543 46.8035 51.0706C46.328 52.1668 45.5356 52.9312 44.3685 53.1908C43.2879 53.436 42.2362 53.3927 41.314 52.6427C40.6225 52.0802 39.9309 51.5466 39.3257 50.8831C39.1384 50.6667 39.124 50.6523 39.2969 50.4215C39.5563 50.0754 39.8444 49.7292 40.1614 49.3542C40.3631 49.5706 40.536 49.7725 40.7233 49.9456C41.242 50.4216 41.7463 50.9263 42.3082 51.359C43.5473 52.2966 45.0313 51.5033 45.4203 50.2485C45.6508 49.4985 45.5068 48.8494 44.9593 48.2725C44.455 47.7533 43.9795 47.2051 43.4896 46.6715C43.3744 46.5417 43.2591 46.3975 43.1438 46.2532C42.9565 45.9936 42.9565 45.6907 43.1438 45.4599C43.3456 45.2147 43.7058 45.0849 43.9651 45.2436C44.21 45.3878 44.455 45.5609 44.6567 45.7484C45.8093 46.8446 46.962 47.9552 48.1146 49.0369C48.6765 49.5706 49.2528 50.061 49.8147 50.5802C50.0885 50.8398 50.4055 50.9408 50.7801 50.9119C51.3708 50.8687 51.9615 50.7821 52.3794 50.2917C52.9125 49.6571 53.0709 48.9071 52.826 48.1138C52.7684 47.9263 52.6099 47.7388 52.4658 47.5946C51.2123 46.2821 49.9444 44.9695 48.6909 43.657C48.2443 43.1811 47.812 42.6763 47.3798 42.1859C47.0628 41.8253 47.2789 41.2195 47.7832 41.0609C47.9417 41.0032 48.1002 41.032 48.2299 41.1474C48.8206 41.6955 49.4257 42.2291 50.002 42.7772C51.5869 44.3061 53.1574 45.8494 54.7423 47.3783C54.9584 47.5946 55.2033 47.7821 55.4194 47.9984C55.722 48.2869 56.0678 48.4311 56.4856 48.4311C57.2637 48.46 57.9552 48.3013 58.4163 47.5946C58.8197 46.9744 58.9206 46.3109 58.6612 45.6042C58.6036 45.4455 58.4883 45.2869 58.3731 45.1571C56.8458 43.5705 55.3186 41.9983 53.7769 40.4118C52.5522 39.157 51.3132 37.9022 50.0885 36.6473C49.9444 36.5031 49.8291 36.33 49.6995 36.1858C49.3681 35.7964 49.6707 35.205 50.1605 35.1473C50.3622 35.1185 50.5495 35.1617 50.708 35.2915C51.1547 35.6954 51.6301 36.0704 52.048 36.5031C53.4744 37.9021 54.8863 39.3156 56.3127 40.7147C56.8026 41.1906 57.3213 41.6522 57.8544 42.0993C58.7189 42.8349 59.5401 42.7051 60.3614 42.0128C60.8224 41.6378 61.0818 41.1474 61.1394 40.5416C61.1682 40.2675 61.125 40.0224 60.9665 39.806C60.5775 39.3156 60.2029 38.7964 59.7562 38.3493C57.6815 36.229 55.6067 34.1088 53.5176 32.003C50.0597 28.5126 46.5729 25.0366 43.115 21.5606C43.0718 21.5173 43.043 21.4741 42.9854 21.4164C43.2015 21.3731 43.3744 21.3298 43.5617 21.2865C44.8584 21.0269 46.1695 20.7817 47.4662 20.5221C48.6909 20.2769 49.9156 20.0461 51.1403 19.8009C52.3217 19.5557 53.4888 19.2961 54.6702 19.0221C55.2898 18.8779 55.6644 18.4163 55.8661 17.8394C56.1831 16.9451 55.8517 16.0797 55.1889 15.4451C54.9872 15.2576 54.7279 15.171 54.4685 15.1566C53.5464 15.0989 52.6099 15.0268 51.6878 15.0268C47.5959 15.0124 43.5041 15.0124 39.4122 15.0124C39.0952 15.0124 39.0952 15.0124 39.0664 14.6951C39.0376 14.4211 38.9944 14.147 38.9655 13.873C38.9511 13.7432 38.9944 13.671 39.124 13.671C39.6139 13.6422 40.1038 13.5845 40.5936 13.5845C44.2389 13.5701 47.8841 13.5557 51.5293 13.5557C52.5811 13.5557 53.6328 13.6133 54.6846 13.6278C55.2177 13.6278 55.6644 13.8009 56.0534 14.1615C56.6153 14.6663 57.1628 15.1999 57.3789 15.9499C57.8256 17.5076 57.4942 18.9644 56.1254 20.0606C55.6211 20.4788 55.0304 20.6375 54.4109 20.7673C53.532 20.9404 52.6675 21.1423 51.803 21.3154C50.8665 21.5029 49.93 21.676 48.9935 21.8635C48.1434 22.0366 47.3077 22.2096 46.4721 22.3827C46.3712 22.426 46.328 22.4548 46.256 22.4837Z" fill="#ED2891"/>
<path d="M22.1804 0.661359C24.5577 0.661359 26.3875 1.00752 28.1453 1.7431C31.4303 3.09889 33.9085 5.34894 35.5942 8.47879C36.1993 9.60381 36.6604 10.8009 36.9197 12.0702C37.107 12.9933 37.1647 13.9308 37.1935 14.8827C37.2223 15.5173 37.2367 16.1664 37.2511 16.801C37.2511 16.9308 37.2943 17.0029 37.3952 17.0606C38.4902 17.7097 39.3114 18.6472 39.9598 19.7289C40.32 20.3347 40.5073 20.9982 40.6946 21.6761C40.7667 21.9068 40.8099 22.152 40.8675 22.3972C40.9251 22.6424 40.8675 22.7289 40.6226 22.7289C40.1615 22.7434 39.6861 22.7434 39.225 22.7578C39.0809 22.7578 39.0665 22.6568 39.0521 22.5559C38.9801 21.7482 38.6919 20.9982 38.2453 20.3203C37.6257 19.3828 36.8189 18.6472 35.7815 18.1856C35.2628 17.9548 35.2772 17.926 35.3349 17.3635C35.4789 16.1375 35.5654 14.8971 35.4069 13.6567C35.234 12.2288 34.8306 10.8586 34.1822 9.58937C32.655 6.60375 30.3353 4.4691 27.1943 3.27197C25.4654 2.6085 23.6644 2.34887 21.8202 2.4931C18.5784 2.73829 15.7976 4.00755 13.5068 6.32969C12.1668 7.68548 11.2303 9.30091 10.6108 11.0894C10.2794 12.0558 10.0777 13.0365 9.94801 14.0606C9.87597 14.6519 10.0345 14.5654 9.3861 14.5798C8.66571 14.5942 7.95971 14.6375 7.26813 14.8683C6.31721 15.1856 5.58241 15.7914 5.07813 16.6568C4.24246 18.0847 4.27128 19.5414 5.02049 20.9837C5.23661 21.3876 5.5824 21.7338 5.87056 22.0944C6.07227 22.3251 6.07228 22.2819 5.85616 22.4982C5.568 22.8011 5.26543 23.0896 4.97727 23.3924C4.90523 23.4646 4.84759 23.4934 4.74674 23.4068C3.85344 22.5991 3.2195 21.6039 2.87371 20.4501C2.65759 19.7289 2.64317 18.9501 2.72962 18.2001C2.98897 15.9068 4.25687 14.3491 6.28839 13.3827C6.79267 13.1375 7.35458 13.0365 7.90209 12.8923C8.19025 12.8202 8.34873 12.6759 8.42077 12.373C8.73775 10.8875 9.24203 9.47398 9.97684 8.14704C10.9278 6.44509 12.1668 4.98836 13.7085 3.79123C14.9188 2.85372 16.2443 2.11813 17.6851 1.58447C19.2844 0.964269 20.9413 0.646936 22.1804 0.661359Z" fill="#A7A9AC"/>
<path d="M25.5807 18.3877C25.5375 16.4982 27.0359 14.9261 28.9234 14.8684C30.71 14.8107 32.4966 16.2242 32.5398 18.2434C32.583 20.1185 31.1566 21.7627 29.1971 21.8204C27.1512 21.8781 25.624 20.4214 25.5807 18.3877Z" fill="#A7A9AC"/>
<path d="M47.2792 7.49831C47.3657 9.7195 45.752 11.3205 44.2392 11.7388C42.4958 12.2291 41.0118 11.782 39.7871 10.4695C39.3693 10.0224 38.9946 9.53202 38.865 8.92625C38.7209 8.32047 38.7065 7.70025 38.7497 7.06563C38.7929 6.57524 38.8362 6.08485 39.0955 5.66657C40.0032 4.15213 41.2711 3.27233 43.0865 3.34445C44.34 3.38772 45.4206 3.86367 46.2563 4.8156C46.9479 5.60888 47.3657 6.53195 47.2792 7.49831ZM45.7088 7.59929C45.7232 6.12811 44.4697 4.90214 42.9568 4.90214C41.4728 4.88772 40.277 6.08483 40.2626 7.58485C40.2481 9.14256 41.4296 10.3253 43.0145 10.3397C44.4841 10.3397 45.7088 9.09931 45.7088 7.59929Z" fill="#A7A9AC"/>
<path d="M53.0281 25.3109C53.0281 24.0272 54.0366 23.0032 55.3045 22.9888C56.7309 22.9888 57.6963 23.9551 57.6963 25.3686C57.6963 26.6667 56.6877 27.6619 55.3766 27.6475C54.0366 27.6475 53.0281 26.6378 53.0281 25.3109ZM54.6274 25.3109C54.6274 25.7869 54.9155 26.0609 55.391 26.0609C55.8088 26.0609 56.1258 25.7147 56.1258 25.2965C56.1258 24.8926 55.7656 24.5609 55.3478 24.5753C54.9299 24.5897 54.613 24.907 54.6274 25.3109Z" fill="#A7A9AC"/>
</svg>
