<svg width="49" height="80" viewBox="0 0 49 80" fill="none" xmlns="http://www.w3.org/2000/svg">
<path d="M41.8618 54.9751C41.8618 51.1962 41.8618 47.4317 41.8618 43.6528C41.8618 42.9316 41.8619 42.9316 41.1271 42.9316C37.698 42.9316 34.2689 42.9316 30.8398 42.9461C30.4219 42.9461 30.2346 42.8162 30.1914 42.3835C29.9321 39.7297 29.2837 37.1623 28.4912 34.6238C28.376 34.2633 28.3184 33.8882 28.1455 33.5709C27.9005 33.0805 28.0735 32.7488 28.4336 32.4171C29.6727 31.2632 30.8974 30.0949 32.1509 28.9699C33.0154 28.191 33.39 27.268 33.3756 26.0997C33.3468 19.8688 33.3756 13.6524 33.3756 7.42155C33.3756 6.75808 33.39 6.74365 34.0527 6.74365C36.603 6.74365 39.1532 6.75808 41.7034 6.74365C42.2077 6.74365 42.3805 6.88788 42.3805 7.40712C42.3661 12.2822 42.3661 17.1572 42.3661 22.0179C42.3661 23.4458 42.3661 24.8593 42.3661 26.2872C42.3517 27.2968 42.7263 28.1334 43.4611 28.8113C44.5417 29.8065 45.6223 30.8017 46.7029 31.7969C48.0717 33.0661 48.8641 34.595 48.8641 36.4844C48.8785 41.4028 48.8786 46.3355 48.8786 51.2539C48.8786 57.2107 48.8786 63.1675 48.8786 69.1099C48.8786 71.4032 48.893 73.7109 48.8786 76.0042C48.8641 77.7927 47.6251 79.0619 45.8529 79.0619C40.4787 79.0763 35.1045 79.0763 29.7448 79.0619C28.1311 79.0619 26.9208 77.7783 26.892 76.0475C26.8488 74.3022 26.8776 72.557 26.8776 70.8262C26.8776 69.831 26.8776 68.8358 26.8776 67.8262C26.8776 67.0041 26.8776 67.0041 27.6844 67.0041C32.0212 67.0041 36.3724 67.0041 40.7092 67.0041C42.0924 67.0041 41.8907 67.0618 41.8907 65.8358C41.8907 62.2155 41.8762 58.5953 41.8618 54.9751C41.8762 54.9751 41.8762 54.9751 41.8618 54.9751Z" fill="#A7A9AC"/>
<path d="M8.82436 27.9023C8.46416 28.6523 8.13277 29.3014 7.8302 29.9504C6.15888 33.3832 4.84776 36.9457 4.14177 40.7102C3.57986 43.6958 3.40699 46.6814 4.25706 49.6526C4.90542 51.9027 6.11565 53.7633 8.00309 55.1623C8.565 55.5806 9.2566 55.5229 9.77529 55.0614C10.2219 54.6575 10.3372 53.8354 10.0058 53.2873C9.89056 53.0854 9.73206 52.8834 9.54476 52.7536C7.9887 51.643 7.29712 50.0132 6.8937 48.2247C6.5479 46.6814 6.60553 45.1381 6.70639 43.5804C6.7352 43.1045 7.0378 43.1045 7.36918 43.1045C9.9338 43.1045 12.4984 43.1045 15.0774 43.1045C18.031 43.1045 20.9847 43.1045 23.9383 43.1045C24.5147 43.1045 24.5723 43.0468 24.5002 42.441C24.1688 39.816 23.5925 37.2342 22.5984 34.7822C21.7195 32.6043 20.6965 30.4841 19.7312 28.3495C19.5439 27.9312 19.5871 27.8302 20.0338 27.8302C20.7397 27.8302 21.4602 27.8014 22.1661 27.8446C22.3823 27.8591 22.6848 28.0466 22.7857 28.2341C24.9469 32.6043 26.6326 37.1476 27.2666 42.0083C27.67 45.1526 27.6556 48.2968 26.6326 51.3401C25.3359 55.1767 22.901 57.9027 18.982 59.2008C17.0801 59.821 15.8266 61.5951 15.8122 63.5999C15.7978 67.0904 15.7978 70.5664 15.8122 74.0568C15.8122 75.8164 17.0657 77.129 18.8235 77.2588C20.2211 77.3597 21.6186 77.4895 23.0162 77.6193C23.6358 77.677 23.6213 77.7203 23.6357 78.5569C23.6357 79.0617 23.362 79.0905 22.9874 79.0905C18.204 79.0905 13.4205 79.0905 8.65147 79.0761C7.48442 79.0761 6.31739 79.0617 5.15034 79.0761C4.81896 79.0761 4.61724 79.0184 4.60283 78.6146C4.57402 77.7924 4.60283 77.6626 5.0927 77.6193C6.49027 77.4895 7.88785 77.3886 9.28542 77.2588C11.1585 77.0857 12.3975 75.7155 12.3975 73.8549C12.3975 70.4366 12.3975 67.0182 12.3975 63.5999C12.3975 61.3932 11.3314 59.8931 9.25662 59.1287C4.99187 57.571 2.48486 54.47 1.44749 50.1286C0.683865 46.9555 0.84234 43.7535 1.38984 40.566C2.13906 36.2823 3.66631 32.2726 5.53934 28.3639C5.72665 27.9745 5.95717 27.8014 6.38941 27.8302C7.02336 27.8591 7.67171 27.8446 8.32007 27.8446C8.42093 27.8446 8.56501 27.8735 8.82436 27.9023Z" fill="#ED2891"/>
<path d="M37.914 0.729079C39.1819 0.729079 40.4498 0.729079 41.7177 0.729079C42.6974 0.729079 43.3458 1.32043 43.3746 2.20025C43.389 3.08007 42.6974 3.75797 41.7321 3.75797C39.1675 3.77239 36.6028 3.77239 34.0382 3.77239C33.0873 3.77239 32.3669 3.08007 32.3813 2.2291C32.3957 1.3637 33.1017 0.743502 34.0814 0.729079C35.3493 0.714656 36.6317 0.714656 37.914 0.729079Z" fill="#A7A9AC"/>
</svg>
